<svg xmlns="http://www.w3.org/2000/svg" width="1080" height="1080" viewBox="0 0 1080 1080" version="1.1"><path d="M 866.238 284.783 L 854.976 285.066 855.021 440.427 L 855.067 595.789 858.784 596.227 C 866.859 597.178, 883.521 596.255, 887.929 594.613 C 890.364 593.705, 895.518 592.472, 899.381 591.873 C 909.630 590.283, 925 583.659, 925 580.833 C 925 580.452, 922.269 581.250, 918.932 582.606 C 909.152 586.580, 892.149 590.369, 890.444 588.954 C 889.481 588.154, 887.011 587.991, 882.762 588.448 C 870.542 589.762, 865 589.968, 865 589.109 C 865 588.630, 869.258 588.052, 874.461 587.825 C 879.665 587.597, 884.256 587.078, 884.663 586.670 C 885.070 586.263, 884.188 584.802, 882.702 583.424 C 881.216 582.046, 880 581.174, 880 581.485 C 880 581.797, 878.538 581.265, 876.750 580.304 C 874.005 578.828, 873.810 578.508, 875.500 578.241 C 877.379 577.945, 882 571.391, 882 569.022 C 882 566.980, 873.777 557.500, 871.139 556.500 C 866.466 554.729, 864 552.574, 864 550.259 C 864 549.017, 864.498 548, 865.107 548 C 865.719 548, 865.935 548.728, 865.590 549.627 C 864.901 551.420, 866.770 553.245, 871.500 555.400 C 875.834 557.373, 882.900 564.834, 883.828 568.415 C 884.439 570.775, 884.204 571.939, 882.810 573.434 C 881.473 574.869, 881.313 575.576, 882.201 576.124 C 882.863 576.533, 883.763 576.646, 884.202 576.375 C 884.641 576.104, 885.014 576.471, 885.032 577.191 C 885.053 578.061, 885.509 577.913, 886.392 576.750 C 887.122 575.788, 888.933 574.900, 890.416 574.778 C 892.843 574.577, 892.940 574.429, 891.388 573.294 C 890.211 572.434, 889.279 572.354, 888.449 573.042 C 887.593 573.753, 887.051 573.575, 886.617 572.444 C 885.501 569.536, 885.961 569.012, 889.250 569.441 C 893.736 570.026, 893.748 570.034, 891.500 571 C 889.592 571.820, 889.603 571.863, 891.750 571.930 C 892.987 571.968, 894 571.622, 894 571.161 C 894 569.856, 899.009 567.890, 900.325 568.679 C 900.971 569.067, 900.873 568.612, 900.107 567.668 C 898.490 565.675, 899.459 564.059, 901.217 565.817 C 902.726 567.326, 904 567.333, 904 565.833 C 904 565.192, 903.704 564.963, 903.342 565.325 C 902.980 565.687, 902.081 565.482, 901.344 564.871 C 900.313 564.015, 899.270 564.476, 896.824 566.868 C 895.075 568.578, 893.445 569.778, 893.202 569.535 C 892.958 569.292, 894.451 567.497, 896.519 565.546 C 899.826 562.428, 900.420 562.192, 901.442 563.590 C 902.490 565.023, 902.732 565.027, 903.889 563.634 C 904.595 562.784, 904.885 561.623, 904.534 561.055 C 904.154 560.439, 904.522 560.263, 905.448 560.618 C 907.443 561.384, 907.404 561.973, 905.250 563.608 C 904.284 564.341, 904.033 564.951, 904.691 564.968 C 905.346 564.986, 906.165 564.543, 906.510 563.984 C 906.856 563.425, 907.605 563.256, 908.176 563.609 C 908.866 564.035, 908.815 564.496, 908.023 564.986 C 907.164 565.517, 907.270 565.890, 908.404 566.325 C 909.269 566.657, 909.928 566.607, 909.870 566.214 C 909.507 563.779, 910.066 562.666, 911.122 563.722 C 911.739 564.339, 912.864 564.606, 913.622 564.315 C 914.380 564.024, 915 564.284, 915 564.893 C 915 565.502, 915.505 566, 916.122 566 C 916.929 566, 916.916 565.603, 916.074 564.589 C 914.821 563.079, 915.060 562.806, 919.879 560.248 C 921.880 559.185, 922.076 559.203, 921.116 560.360 C 919.432 562.389, 922.201 564.498, 924.755 563.131 C 927.017 561.920, 930.253 562.258, 930.752 563.757 C 931.139 564.918, 929.232 564.901, 927.355 563.728 C 926.721 563.331, 925.945 563.702, 925.616 564.558 C 925.244 565.529, 925.432 565.851, 926.123 565.424 C 926.728 565.050, 927.616 565.364, 928.096 566.122 C 928.639 566.979, 928.975 567.061, 928.985 566.338 C 928.993 565.700, 929.788 565.304, 930.750 565.460 C 931.712 565.616, 933.090 565.273, 933.811 564.698 C 934.782 563.925, 935.747 564.326, 937.520 566.238 L 939.918 568.824 937.494 570.412 C 936.161 571.285, 934.653 572, 934.142 572 C 932.489 572, 932.079 569.183, 933.645 568.583 C 935.963 567.693, 936.268 567.859, 935.584 569.641 C 935.061 571.005, 935.209 571.072, 936.456 570.036 C 938.381 568.439, 936.716 564.788, 934.457 565.655 C 931.582 566.758, 930.880 569.630, 932.880 572.101 L 934.732 574.387 942.116 570.035 C 952.503 563.914, 966.577 553.164, 972.658 546.708 C 985.270 533.318, 997.969 514.939, 1004.203 501.051 C 1010.725 486.524, 1015.671 467.873, 1016.550 454.500 C 1016.875 449.550, 1017.849 443.822, 1018.713 441.771 C 1019.955 438.823, 1020.167 435.782, 1019.721 427.271 C 1018.357 401.238, 1007.524 370.944, 991.196 347.500 C 982.661 335.245, 955.440 309, 951.264 309 C 950.569 309, 950 308.596, 950 308.101 C 950 306.947, 927.565 295.065, 924.501 294.597 C 923.951 294.513, 922.937 294.092, 922.248 293.662 C 919.879 292.182, 906.495 287.802, 903 287.363 C 897.970 286.731, 895.768 286.280, 893.500 285.420 C 891.518 284.668, 891.517 284.680, 893.437 286.866 C 894.502 288.079, 896.028 288.819, 896.828 288.512 C 897.955 288.080, 898.029 288.260, 897.157 289.310 C 896.254 290.399, 896.602 290.667, 898.921 290.667 C 900.929 290.667, 901.652 290.257, 901.293 289.322 C 900.944 288.413, 901.299 288.178, 902.389 288.596 C 904.189 289.287, 904.583 291, 902.941 291 C 902.359 291, 902.188 291.495, 902.562 292.100 C 903.045 292.882, 902.635 292.875, 901.143 292.077 C 899.469 291.181, 899.150 291.226, 899.562 292.302 C 899.847 293.044, 901.832 294.424, 903.974 295.369 C 906.117 296.314, 909.235 298.642, 910.904 300.543 C 912.573 302.445, 914.573 304, 915.347 304 C 916.121 304, 917.315 304.675, 918 305.500 C 918.685 306.325, 919.695 307, 920.245 307 C 920.836 307, 920.772 306.430, 920.087 305.605 C 919.451 304.838, 918.994 303.826, 919.073 303.355 C 919.152 302.885, 918.897 301.512, 918.506 300.305 C 917.916 298.483, 917.490 298.301, 915.998 299.234 C 914.943 299.892, 914.443 301.006, 914.787 301.928 C 915.300 303.302, 915.156 303.322, 913.640 302.088 C 912.615 301.254, 912.314 300.424, 912.905 300.059 C 913.553 299.658, 913.481 298.703, 912.702 297.342 C 908.688 290.334, 908.704 290.383, 911.350 293.342 C 912.748 294.906, 914.366 295.892, 914.946 295.533 C 915.526 295.175, 916 295.321, 916 295.858 C 916 296.394, 915.438 297.034, 914.750 297.280 C 914.063 297.525, 913.827 298.077, 914.226 298.506 C 914.625 298.934, 915.618 298.732, 916.432 298.056 C 918.249 296.549, 920.151 297.555, 919.777 299.825 C 919.597 300.914, 920.086 301.403, 921.174 301.224 C 922.131 301.066, 923.121 301.807, 923.485 302.953 C 923.835 304.057, 924.432 304.915, 924.811 304.861 C 927.095 304.536, 928.149 305.170, 927.618 306.552 C 927.289 307.409, 927.449 307.841, 927.975 307.515 C 928.981 306.894, 933 310.383, 933 311.878 C 933 312.360, 933.759 313.373, 934.687 314.128 C 936.170 315.333, 936.292 315.281, 935.699 313.698 C 935.269 312.552, 935.407 312.134, 936.080 312.549 C 936.661 312.908, 936.895 313.832, 936.600 314.601 C 936.296 315.392, 936.676 316, 937.472 316 C 938.248 316, 939.157 316.445, 939.493 316.989 C 939.843 317.555, 939.442 317.723, 938.552 317.382 C 937.698 317.054, 937 317.284, 937 317.893 C 937 318.502, 937.461 319, 938.025 319 C 938.588 319, 939.488 320.152, 940.023 321.560 C 940.576 323.016, 941.466 323.830, 942.085 323.447 C 942.869 322.963, 942.870 322.470, 942.087 321.687 C 941.489 321.089, 941.010 320.127, 941.022 319.550 C 941.034 318.972, 941.894 319.605, 942.932 320.956 C 944.681 323.231, 944.697 323.507, 943.160 324.708 C 941.644 325.892, 941.658 325.949, 943.325 325.367 C 944.555 324.937, 945.087 325.180, 944.957 326.114 C 944.525 329.208, 945.070 331.192, 946.250 330.817 C 946.938 330.599, 948.741 331.707, 950.257 333.280 C 952.561 335.669, 952.684 336.034, 951.007 335.502 C 949.853 335.136, 949 335.319, 949 335.933 C 949 336.520, 949.620 337, 950.378 337 C 951.135 337, 952.324 337.685, 953.019 338.523 C 954.076 339.796, 954.014 339.943, 952.641 339.416 C 951.712 339.059, 951 339.280, 951 339.924 C 951 340.551, 951.701 341.332, 952.557 341.660 C 953.414 341.989, 953.884 342.861, 953.601 343.597 C 953.319 344.333, 953.548 345.221, 954.112 345.569 C 954.675 345.917, 954.900 346.817, 954.612 347.569 C 954.323 348.321, 954.419 349.141, 954.825 349.392 C 955.231 349.643, 955.675 351.321, 955.812 353.122 C 956.085 356.697, 957.016 358.223, 957.720 356.250 C 958.635 353.689, 959.654 355.127, 959.578 358.873 C 959.518 361.872, 959.838 362.643, 961 362.291 C 962.095 361.959, 962.028 362.226, 960.750 363.279 C 958.716 364.955, 958.442 366.150, 960.250 365.462 C 961.118 365.131, 961.568 366.364, 961.721 369.493 C 961.842 371.972, 961.505 374, 960.971 374 C 960.437 374, 960 374.436, 960 374.969 C 960 375.501, 960.788 375.684, 961.750 375.374 C 962.768 375.047, 963.082 375.165, 962.500 375.656 C 961.308 376.662, 961.159 384.974, 962.302 386.739 C 962.836 387.564, 962.641 387.800, 961.719 387.446 C 960.918 387.138, 960.333 387.547, 960.333 388.413 C 960.333 389.237, 960.677 389.699, 961.098 389.440 C 962.720 388.437, 962.898 390.898, 961.417 393.866 C 960.564 395.576, 960.148 397.430, 960.492 397.987 C 960.836 398.544, 960.641 399, 960.059 399 C 959.477 399, 959 399.477, 959 400.059 C 959 400.641, 959.450 400.840, 960 400.500 C 960.550 400.160, 961 400.359, 961 400.941 C 961 401.523, 960.598 402, 960.107 402 C 958.593 402, 957.952 405.042, 959.039 407.072 C 959.778 408.453, 959.746 409, 958.928 409 C 958.300 409, 958.028 409.631, 958.324 410.402 C 958.620 411.173, 958.561 412.105, 958.194 412.473 C 957.826 412.840, 957.501 413.672, 957.471 414.321 C 957.353 416.886, 954.585 421.055, 953.322 420.570 C 951.651 419.929, 951.611 421.208, 953.250 422.859 C 954.252 423.869, 954.153 423.986, 952.750 423.452 C 950.927 422.758, 950.567 423.709, 951.617 426.444 C 952.123 427.762, 952.527 427.827, 953.867 426.806 C 954.765 426.121, 954.431 426.762, 953.123 428.229 C 951.608 429.931, 950.975 431.551, 951.376 432.699 C 951.933 434.295, 951.835 434.281, 950.513 432.573 C 949.692 431.513, 948.727 430.940, 948.368 431.299 C 948.009 431.658, 948.254 432.601, 948.913 433.395 C 949.869 434.547, 949.746 435.057, 948.305 435.919 C 946.579 436.952, 946.584 437.064, 948.441 438.499 C 949.509 439.325, 949.936 440, 949.391 440 C 948.846 440, 947.920 439.520, 947.333 438.933 C 946.576 438.176, 946.098 438.303, 945.690 439.367 C 945.373 440.192, 946.325 442.454, 947.807 444.393 C 954.618 453.308, 960.144 462, 959.001 462 C 958.180 462, 952.788 454.568, 949.318 448.654 C 947.490 445.538, 941.153 440.072, 938.702 439.497 C 935.990 438.860, 934.820 439.680, 933.206 443.348 C 932.450 445.068, 931.417 445.990, 930.599 445.676 C 928.763 444.972, 927.018 446.883, 927.752 448.795 C 928.203 449.971, 927.907 450.178, 926.532 449.651 C 925.014 449.068, 924.919 449.197, 925.952 450.442 C 927.018 451.726, 927.530 451.524, 929.683 448.965 C 931.055 447.334, 932.741 446, 933.428 446 C 934.905 446, 937.277 450.743, 936.461 452.063 C 936.150 452.566, 936.576 452.716, 937.406 452.398 C 938.441 452, 939.121 452.636, 939.569 454.417 C 939.938 455.890, 941.975 458.205, 944.268 459.758 C 947.446 461.911, 948.619 463.552, 949.731 467.400 C 950.510 470.094, 952.127 473.117, 953.324 474.116 C 954.521 475.116, 955.144 475.948, 954.708 475.967 C 953.060 476.036, 950.226 472.335, 948.599 467.989 C 947.525 465.120, 945.673 462.629, 943.511 461.148 C 941.641 459.867, 939.401 457.734, 938.532 456.409 C 936.538 453.366, 934.679 453.270, 935.438 456.250 L 936.011 458.500 934.852 456.250 C 933.518 453.658, 931.466 453.167, 932.427 455.670 C 932.780 456.589, 932.490 457.713, 931.784 458.170 C 930.764 458.829, 930.808 459.214, 932 460.042 C 933.333 460.968, 933.333 461.066, 932 460.923 C 929.063 460.610, 928.070 461.018, 928.574 462.333 C 928.856 463.067, 928.392 463.742, 927.543 463.833 C 926.694 463.925, 925.325 464.075, 924.500 464.167 C 923.675 464.258, 923.221 464.554, 923.491 464.825 C 923.762 465.095, 923.481 465.920, 922.869 466.658 C 921.273 468.581, 922.967 468.315, 925.421 466.257 C 926.936 464.987, 926.843 465.258, 925.079 467.253 C 923.748 468.760, 922.483 469.816, 922.268 469.601 C 922.053 469.386, 920.701 470.299, 919.265 471.630 C 916.517 474.177, 914.500 474.298, 914.500 471.917 C 914.500 471.089, 915.496 470.500, 916.896 470.500 C 918.652 470.500, 919.815 469.497, 921.244 466.750 C 922.318 464.688, 923.739 463, 924.402 463 C 926.150 463, 932.176 456.509, 931.269 455.602 C 930.848 455.181, 931.329 454.232, 932.339 453.494 C 933.349 452.755, 934.024 451.386, 933.838 450.450 C 933.583 449.165, 932.113 450.149, 927.821 454.478 C 924.520 457.808, 921.667 459.912, 921.006 459.504 C 919.629 458.652, 922.488 455.142, 925.463 454.031 C 927.366 453.321, 927.359 453.262, 925.235 452.126 C 923.335 451.109, 923.131 451.179, 923.696 452.650 C 924.186 453.927, 923.946 454.193, 922.725 453.725 C 921.525 453.264, 921.264 453.525, 921.725 454.725 C 922.167 455.876, 921.919 456.183, 920.872 455.781 C 919.795 455.368, 919.411 455.928, 919.449 457.858 C 919.481 459.508, 918.962 460.500, 918.068 460.500 C 916.397 460.500, 911 465.003, 911 466.397 C 911 466.920, 912.046 466.366, 913.324 465.165 C 914.602 463.964, 916.025 463.323, 916.485 463.741 C 916.944 464.158, 917.062 464.043, 916.746 463.484 C 916.429 462.925, 917.370 461.921, 918.835 461.253 C 921.384 460.091, 921.362 460.164, 918.331 462.933 C 916.587 464.525, 915.449 466.115, 915.800 466.467 C 916.152 466.818, 915.665 466.809, 914.720 466.446 C 913.675 466.045, 913 466.263, 913 467 C 913 467.668, 912.423 467.992, 911.717 467.722 C 909.771 466.975, 905.808 470.678, 905.644 473.397 C 905.520 475.471, 905.228 475.656, 903.522 474.744 C 901.552 473.690, 901.552 473.683, 903.522 472.913 C 905.675 472.072, 905.570 471.954, 902.348 471.591 C 900.981 471.437, 900.370 471.801, 900.673 472.589 C 901.123 473.764, 895.777 478.500, 894 478.500 C 893.541 478.500, 892.792 478.910, 892.333 479.410 C 891.849 479.939, 892.024 480.019, 892.750 479.601 C 894.228 478.751, 894.463 480.596, 892.992 481.505 C 892.438 481.847, 891.281 481.424, 890.421 480.564 C 888.440 478.583, 887.352 478.514, 888.977 480.472 C 889.952 481.647, 889.890 482.253, 888.671 483.472 C 887.830 484.312, 886.886 485, 886.571 485 C 885.513 485, 885.989 482.170, 887.110 481.797 C 887.819 481.560, 887.671 480.972, 886.699 480.165 C 885.522 479.188, 885.010 479.175, 884.435 480.106 C 883.936 480.912, 884.115 481.047, 884.975 480.515 C 885.831 479.987, 886.107 480.185, 885.801 481.111 C 885.549 481.875, 884.391 482.641, 883.227 482.812 C 881.860 483.014, 881.306 483.634, 881.662 484.562 C 881.966 485.353, 881.702 486, 881.076 486 C 880.449 486, 879.664 485.287, 879.329 484.416 C 878.836 483.130, 878.545 483.083, 877.785 484.166 C 877.052 485.209, 876.737 485.228, 876.341 484.250 C 875.613 482.456, 873.948 482.700, 874.638 484.500 C 875.003 485.450, 874.625 486, 873.607 486 C 872.723 486, 872 486.450, 872 487 C 872 488.234, 873.685 488.318, 874.425 487.121 C 875.202 485.864, 879 485.011, 879 486.094 C 879 486.592, 878.357 487, 877.571 487 C 876.786 487, 875.460 487.683, 874.626 488.517 C 873.270 489.873, 872.885 489.793, 870.993 487.767 C 869.438 486.101, 869.054 485.964, 869.545 487.250 C 870.017 488.484, 869.723 489, 868.548 489 C 867.632 489, 867.160 488.550, 867.500 488 C 867.840 487.450, 867.641 487, 867.059 487 C 865.735 487, 865.728 487.623, 867.023 490.043 C 867.849 491.586, 867.752 491.842, 866.523 491.371 C 865.685 491.049, 865 490.384, 865 489.893 C 865 489.402, 864.564 489, 864.031 489 C 863.499 489, 863.324 489.680, 863.643 490.511 C 864.051 491.574, 863.763 491.846, 862.674 491.429 C 861.755 491.076, 861.358 490.158, 861.698 489.167 C 862.141 487.874, 861.935 487.929, 860.779 489.412 C 859.866 490.584, 858.652 491.081, 857.645 490.694 C 856.171 490.128, 856 487.071, 856 461.329 L 856 432.595 859.250 429.172 C 861.650 426.645, 861.932 426.042, 860.331 426.867 C 859.138 427.481, 857.974 427.650, 857.745 427.242 C 857.515 426.834, 857.459 427.048, 857.620 427.718 C 857.781 428.388, 857.535 429.169, 857.073 429.455 C 856.611 429.740, 856.167 423.357, 856.086 415.270 L 855.939 400.567 858.774 403.283 C 863.065 407.395, 863.871 406.537, 859.667 402.333 L 856 398.667 856 378.922 L 856 359.178 861 354.902 C 863.750 352.551, 866 350.250, 866 349.790 C 866 348.822, 861.533 351.456, 858.250 354.359 L 856 356.349 856 353.674 C 856 351.853, 856.528 351, 857.655 351 C 859.195 351, 859.195 350.873, 857.655 349.171 C 856.287 347.660, 856 345.003, 856 333.867 L 856 320.392 859.298 317.196 C 861.111 315.438, 863.335 314, 864.239 314 C 865.142 314, 866.188 313.505, 866.562 312.899 C 867.349 311.626, 873.073 312.500, 874.024 314.039 C 874.367 314.594, 876.302 315.110, 878.324 315.186 C 880.346 315.262, 882 315.756, 882 316.284 C 882 316.813, 882.675 316.685, 883.500 316 C 884.325 315.315, 885 315.090, 885 315.500 C 885 315.910, 885.747 315.627, 886.661 314.872 C 888.175 313.621, 888.202 313.692, 886.961 315.685 C 886.212 316.887, 885.328 317.703, 884.996 317.497 C 884.663 317.292, 883.926 318.357, 883.357 319.864 C 882.451 322.266, 882.608 322.739, 884.624 323.690 C 887.737 325.160, 891.080 323.006, 889.200 320.741 C 888.224 319.566, 888.265 319.025, 889.399 318.084 C 890.370 317.278, 891.028 317.236, 891.470 317.951 C 891.826 318.528, 892.815 319, 893.667 319 C 894.829 319, 895.057 318.362, 894.577 316.449 C 894.055 314.372, 894.268 313.954, 895.718 314.199 C 896.725 314.369, 897.391 313.956, 897.250 313.250 C 896.933 311.665, 898.239 311.639, 899.800 313.200 C 900.590 313.990, 901 314.030, 901 313.316 C 901 311.845, 893.322 305, 891.671 305 C 889.993 305, 885.442 300.224, 886.302 299.364 C 886.920 298.746, 889.119 300.294, 897.250 307.069 C 900.149 309.485, 901 309.818, 901 308.538 C 901 307.627, 901.337 307.081, 901.750 307.324 C 902.163 307.566, 903.575 307.360, 904.888 306.864 C 907.200 305.991, 907.219 305.899, 905.483 303.981 C 903.818 302.141, 903.812 302, 905.404 302 C 906.347 302, 906.833 301.538, 906.484 300.973 C 906.135 300.409, 905.321 300.053, 904.675 300.183 C 903.172 300.486, 899 298.199, 899 297.074 C 899 295.692, 887.908 285, 886.475 285 C 885.755 285, 884.977 285.563, 884.746 286.250 C 884.434 287.178, 883.961 287.215, 882.913 286.394 C 880.749 284.701, 878.425 284.477, 866.238 284.783 M 884 303.836 C 884 304.451, 885.125 305.691, 886.500 306.592 C 887.875 307.493, 889 308.853, 889 309.615 C 889 310.377, 889.638 311, 890.417 311 C 891.196 311, 892.013 311.540, 892.234 312.201 C 892.454 312.863, 892.858 312.975, 893.134 312.451 C 893.408 311.928, 891.466 309.524, 888.817 307.109 C 886.168 304.693, 884 303.221, 884 303.836 M 920 303.852 C 920 304.138, 921.013 305.511, 922.250 306.905 C 923.487 308.299, 923.765 308.879, 922.867 308.194 C 921.547 307.188, 921.131 307.215, 920.702 308.333 C 920.309 309.358, 920.928 309.630, 923.086 309.378 C 924.688 309.192, 926 309.480, 926 310.020 C 926 310.942, 924.532 311.416, 922.676 311.094 C 922.222 311.015, 922.124 311.392, 922.458 311.932 C 922.791 312.471, 923.679 312.677, 924.431 312.388 C 925.183 312.100, 926.083 312.325, 926.431 312.888 C 926.779 313.452, 927.803 313.629, 928.706 313.283 C 929.970 312.798, 930.190 313.063, 929.662 314.438 C 929.172 315.716, 929.371 316.072, 930.364 315.690 C 931.228 315.359, 931.704 315.789, 931.626 316.829 C 931.557 317.748, 932.046 318.393, 932.714 318.262 C 933.465 318.115, 933.685 318.658, 933.290 319.686 C 932.840 320.859, 933.073 321.186, 934.082 320.799 C 934.868 320.497, 936.064 320.843, 936.741 321.568 C 937.718 322.613, 937.688 323.169, 936.598 324.260 C 935.432 325.425, 935.661 325.927, 938.109 327.567 C 941.462 329.814, 941.863 331.039, 939 330.290 C 937.900 330.002, 937 330.255, 937 330.852 C 937 331.449, 937.563 331.722, 938.250 331.458 C 938.938 331.195, 940.737 332.127, 942.250 333.530 C 945.586 336.625, 945.766 337.473, 942.750 335.889 C 940.977 334.958, 941.137 335.330, 943.500 337.643 C 945.150 339.257, 946.775 340.459, 947.112 340.315 C 947.449 340.170, 947.674 341.016, 947.612 342.193 C 947.550 343.371, 946.937 344.522, 946.249 344.751 C 945.501 345, 945.218 344.596, 945.545 343.744 C 945.845 342.961, 945.283 341.686, 944.296 340.910 C 942.668 339.632, 942.625 339.660, 943.836 341.206 C 944.571 342.145, 944.913 343.331, 944.597 343.843 C 944.281 344.355, 944.687 345.325, 945.500 346 C 946.313 346.675, 946.686 347.738, 946.329 348.363 C 945.964 349.002, 946.073 349.140, 946.577 348.679 C 947.071 348.228, 947.480 347.142, 947.487 346.266 C 947.494 345.389, 948.058 344.485, 948.741 344.256 C 949.622 343.960, 949.813 344.685, 949.399 346.756 C 949.006 348.720, 949.336 350.193, 950.408 351.265 C 952.413 353.270, 952.456 354.389, 950.500 353.638 C 949.586 353.288, 949 353.637, 949 354.531 C 949 355.339, 949.648 356, 950.441 356 C 951.234 356, 952.157 356.445, 952.493 356.989 C 952.858 357.580, 952.379 357.712, 951.302 357.319 C 949.676 356.725, 949.694 356.881, 951.487 358.921 C 953.359 361.051, 953.374 361.254, 951.737 362.451 C 949.531 364.063, 949.489 365.133, 951.664 364.299 C 952.775 363.872, 953.090 364.045, 952.612 364.819 C 952.144 365.575, 952.434 365.771, 953.448 365.382 C 954.302 365.054, 955 365.254, 955 365.826 C 955 366.397, 954.100 367.151, 953 367.500 C 951.900 367.849, 951 368.644, 951 369.267 C 951 370.106, 951.292 370.108, 952.124 369.276 C 953.972 367.428, 955.953 369.993, 954.873 372.834 C 954.385 374.118, 954.221 375.549, 954.509 376.015 C 954.797 376.481, 954.580 377.142, 954.026 377.484 C 953.379 377.884, 953.463 378.585, 954.260 379.448 C 954.942 380.186, 955.741 380.645, 956.036 380.468 C 956.330 380.292, 956.571 381.025, 956.571 382.098 C 956.571 383.317, 956.069 383.857, 955.234 383.536 C 954.498 383.254, 954.152 383.437, 954.464 383.942 C 954.777 384.448, 954.548 385.161, 953.956 385.527 C 953.257 385.959, 953.474 386.626, 954.575 387.431 C 956.123 388.563, 956.021 388.900, 953.395 391.335 C 951.814 392.801, 950.988 394, 951.560 394 C 952.132 394, 953.140 393.460, 953.800 392.800 C 954.467 392.133, 955 392.044, 955 392.600 C 955 393.150, 954.492 394.108, 953.871 394.729 C 952.154 396.446, 951.964 403.228, 953.651 402.580 C 955.404 401.908, 955.369 402.773, 953.571 404.571 C 951.777 406.366, 950.907 406.405, 951.577 404.660 C 951.860 403.923, 951.396 402.743, 950.546 402.038 C 949.633 401.280, 949 401.180, 949 401.794 C 949 402.366, 949.563 403.044, 950.250 403.302 C 951.119 403.628, 950.891 404.271, 949.500 405.413 C 947.598 406.974, 947.593 407.041, 949.396 406.777 C 950.439 406.625, 951.505 407.110, 951.765 407.855 C 952.107 408.837, 951.654 409.025, 950.118 408.538 C 947.601 407.739, 947.337 408.795, 949.634 410.475 C 951.076 411.529, 951.094 411.833, 949.786 413.055 C 948.970 413.817, 948.517 415.262, 948.780 416.266 C 949.052 417.307, 948.450 418.751, 947.379 419.627 C 945.794 420.923, 945.766 421.080, 947.199 420.633 C 948.374 420.266, 948.730 420.540, 948.354 421.520 C 948.011 422.413, 946.742 422.814, 944.929 422.603 C 943.319 422.416, 942.302 422.680, 942.625 423.202 C 942.942 423.716, 943.832 423.895, 944.601 423.600 C 947.110 422.637, 946.123 426.420, 942.963 429.880 C 940.468 432.611, 940.146 433.470, 941.159 434.691 C 942.181 435.923, 942.077 436.120, 940.550 435.839 C 939.537 435.653, 938.535 435.991, 938.323 436.591 C 937.817 438.029, 942.825 437.708, 945.798 436.112 C 947.438 435.231, 947.920 434.322, 947.479 432.934 C 947.077 431.667, 947.408 430.780, 948.431 430.388 C 949.391 430.020, 950.006 428.565, 950.015 426.643 C 950.032 422.883, 952.200 418.401, 953.832 418.750 C 954.474 418.887, 954.929 418.662, 954.841 418.250 C 954.754 417.837, 955.029 416.707, 955.453 415.738 C 955.877 414.768, 956.010 412.521, 955.749 410.743 C 955.469 408.837, 955.874 406.595, 956.736 405.280 C 960.303 399.837, 960.213 360.637, 956.627 357.560 C 955.947 356.977, 954.589 353.350, 953.608 349.500 C 952.627 345.650, 951.375 341.957, 950.826 341.294 C 950.277 340.630, 950.089 339.665, 950.408 339.149 C 950.727 338.632, 950.269 337.934, 949.391 337.596 C 948.479 337.247, 948.039 336.342, 948.365 335.492 C 948.680 334.671, 948.475 334, 947.910 334 C 947.344 334, 947.167 333.539, 947.515 332.975 C 947.864 332.412, 947.590 332.074, 946.906 332.225 C 946.223 332.376, 945.177 331.591, 944.582 330.479 C 943.987 329.368, 942.487 327.048, 941.250 325.325 C 940.013 323.601, 939 321.746, 939 321.203 C 939 320.659, 938.325 319.955, 937.500 319.638 C 936.675 319.322, 936 318.415, 936 317.624 C 936 316.833, 933.638 314.053, 930.750 311.446 C 927.862 308.840, 925.612 306.323, 925.750 305.854 C 925.888 305.384, 925.663 305.053, 925.250 305.118 C 923.385 305.413, 921.927 304.927, 922.397 304.167 C 922.680 303.708, 922.257 303.333, 921.456 303.333 C 920.655 303.333, 920 303.567, 920 303.852 M 867.446 326.250 C 861.762 332.520, 859.782 338.406, 865.108 333.198 C 866.818 331.527, 867.919 329.679, 867.556 329.091 C 867.151 328.435, 867.495 328.253, 868.448 328.618 C 869.468 329.010, 870 328.643, 870 327.548 C 870 326.632, 870.445 326.157, 870.989 326.493 C 871.576 326.856, 871.710 326.407, 871.319 325.388 C 870.872 324.224, 871.036 323.904, 871.830 324.395 C 872.474 324.793, 873 324.641, 873 324.059 C 873 321.998, 870.354 323.042, 867.446 326.250 M 868.074 333.933 C 866.919 334.664, 867.278 335.552, 869.970 338.619 C 876.746 346.336, 878 347.499, 878 346.069 C 878 345.292, 877.330 343.917, 876.511 343.012 C 875.169 341.529, 875.413 341.078, 878.987 338.433 C 881.168 336.820, 882.963 335.163, 882.976 334.750 C 883.030 333.064, 880.399 334.190, 877.325 337.170 L 874.055 340.339 871.777 337.439 C 870.525 335.844, 869.612 334.193, 869.750 333.769 C 870.066 332.796, 869.835 332.818, 868.074 333.933 M 745.250 338.367 C 743.462 340.207, 742 342.002, 742 342.356 C 742 342.710, 741.212 343.832, 740.250 344.850 C 735.267 350.116, 730.610 357.814, 729.572 362.500 C 729.206 364.150, 726.906 370.024, 724.459 375.554 C 719.685 386.346, 715.828 398.262, 713.470 409.500 C 711.832 417.307, 711.320 463.462, 712.860 464.414 C 713.334 464.706, 714 466.985, 714.342 469.479 C 716.814 487.513, 731.499 518.529, 744.889 534 L 747.919 537.500 747.942 478.500 C 747.955 446.050, 748.123 400.488, 748.315 377.250 C 748.507 354.012, 748.627 335.005, 748.582 335.011 C 748.537 335.017, 747.038 336.527, 745.250 338.367 M 745.653 341.831 C 743.968 343.693, 744.342 345, 746.561 345 C 747.242 345, 747.724 343.887, 747.644 342.501 C 747.565 341.126, 747.457 340.001, 747.405 340.001 C 747.353 340, 746.564 340.824, 745.653 341.831 M 866.229 342.944 C 864.453 344.495, 863 346.351, 863 347.070 C 863 347.858, 863.810 347.507, 865.039 346.189 C 866.160 344.985, 867.462 344, 867.932 344 C 868.781 344, 870.315 340.982, 869.753 340.419 C 869.591 340.257, 868.005 341.393, 866.229 342.944 M 739.713 352.685 C 739.322 354.642, 738.302 356.087, 737.027 356.492 C 735.149 357.088, 735.053 359, 736.902 359 C 738.157 359, 741.322 352.467, 740.810 350.931 C 740.554 350.161, 740.060 350.951, 739.713 352.685 M 917.215 372.664 C 913.295 375.921, 912.350 378.847, 915.624 377.591 C 916.759 377.155, 916.832 377.445, 915.988 379.023 C 914.900 381.056, 913.422 381.610, 912.833 380.205 C 912.233 378.774, 904.088 375.048, 903.531 375.950 C 903.232 376.434, 903.553 377.058, 904.244 377.338 C 905.209 377.730, 905.223 378.045, 904.305 378.699 C 903.648 379.167, 903.247 380.438, 903.414 381.525 C 903.580 382.611, 903.347 383.741, 902.896 384.036 C 902.445 384.330, 902.339 385.581, 902.662 386.814 C 903.110 388.529, 903.748 388.917, 905.374 388.463 C 906.978 388.015, 907.148 388.112, 906.064 388.858 C 904.914 389.651, 904.874 390.143, 905.863 391.335 C 906.699 392.342, 906.759 393.031, 906.049 393.470 C 905.472 393.826, 905 393.432, 905 392.594 C 905 391.756, 904.100 390.589, 903 390 C 901.260 389.069, 901 389.240, 901 391.310 C 901 393.515, 904.384 397.714, 905.855 397.333 C 906.210 397.242, 906.725 397.426, 907 397.744 C 907.275 398.061, 907.003 398.037, 906.395 397.691 C 905.788 397.345, 904.247 398.173, 902.971 399.531 C 901.695 400.889, 901.164 402, 901.791 402 C 902.417 402, 903.418 401.087, 904.015 399.972 C 904.612 398.857, 905.520 398.203, 906.032 398.520 C 907.186 399.233, 913.664 394.925, 915.604 392.155 C 916.953 390.229, 917.193 390.204, 919.811 391.706 C 923.362 393.744, 928.820 392.823, 932.299 389.599 C 934.094 387.935, 935.155 387.555, 935.904 388.304 C 937.531 389.931, 938.578 388.155, 937.248 386.026 C 936.601 384.990, 936.393 383.959, 936.786 383.735 C 937.179 383.511, 936.970 383.452, 936.323 383.604 C 935.676 383.757, 934.632 383.262, 934.004 382.505 C 933.376 381.748, 931.624 380.857, 930.110 380.524 C 926.284 379.684, 919.951 374.292, 920.650 372.470 C 920.958 371.668, 921.612 371.260, 922.105 371.565 C 922.597 371.869, 923 371.668, 923 371.118 C 923 368.865, 921.215 369.342, 917.215 372.664 M 905 379.917 C 905 380.421, 905.563 381.023, 906.250 381.254 C 907.221 381.581, 907.189 382.052, 906.107 383.362 C 904.100 385.793, 905.336 386.392, 907.477 384.025 C 908.950 382.398, 909.047 381.762, 908.016 380.519 C 906.613 378.829, 905 378.507, 905 379.917 M 861.406 389.501 C 863.004 390.876, 864.628 392, 865.016 392 C 865.403 392, 867.424 393.607, 869.507 395.571 C 872.386 398.286, 873.495 398.826, 874.132 397.821 C 874.863 396.668, 875.371 397.287, 875.172 399.090 C 875.136 399.415, 877.333 401.873, 880.053 404.553 C 885.590 410.006, 886.943 409.173, 881.557 403.626 C 879.663 401.676, 877.603 399.127, 876.980 397.963 C 876.357 396.798, 875.252 396.073, 874.525 396.352 C 873.798 396.631, 871.726 395.541, 869.921 393.930 C 868.116 392.318, 866.252 391, 865.778 391 C 865.304 391, 863.950 390.100, 862.770 389 C 861.589 387.900, 860.145 387.001, 859.561 387.001 C 858.978 387.002, 859.807 388.127, 861.406 389.501 M 894.208 402.039 C 893.508 403.160, 892.593 403.866, 892.175 403.608 C 891.757 403.350, 891.350 404.010, 891.269 405.075 C 891.177 406.298, 892.220 407.579, 894.094 408.549 C 895.728 409.394, 896.818 410.485, 896.516 410.973 C 895.521 412.583, 897.746 413.011, 899.035 411.458 C 900.074 410.206, 899.962 409.683, 898.398 408.497 C 897.354 407.705, 895.938 407.255, 895.250 407.497 C 893.720 408.036, 893.681 407.464, 895.070 404.870 C 896.421 402.346, 898.294 403.679, 900.717 408.888 C 901.642 410.874, 903.281 413.290, 904.359 414.256 C 905.438 415.222, 906.026 416.307, 905.666 416.667 C 905.307 417.027, 904.033 416.461, 902.837 415.411 C 901.045 413.837, 900.766 413.789, 901.256 415.137 C 901.711 416.390, 901.383 416.651, 899.859 416.253 C 898.449 415.884, 898.179 415.421, 898.934 414.666 C 900.588 413.012, 900.190 411.598, 898.471 413.024 C 897.204 414.076, 896.536 413.912, 894.576 412.072 C 893.111 410.695, 891.965 410.248, 891.564 410.896 C 891.209 411.471, 892.139 412.967, 893.630 414.221 C 895.122 415.474, 897.211 417.332, 898.271 418.350 C 899.674 419.695, 900.500 419.900, 901.300 419.100 C 903.391 417.009, 904.071 418.008, 902.040 420.188 L 900.001 422.376 897.196 419.688 C 895.653 418.210, 893.934 417, 893.375 417 C 892.817 417, 890.520 415.425, 888.271 413.500 C 883.935 409.789, 883 409.356, 883 411.059 C 883 411.641, 883.450 411.840, 884 411.500 C 884.550 411.160, 885 411.377, 885 411.981 C 885 413.246, 892.470 420.583, 894.584 421.394 C 895.363 421.693, 896 422.456, 896 423.091 C 896 423.916, 895.567 423.886, 894.482 422.985 C 892.801 421.590, 884.782 419.838, 885.516 421.026 C 885.770 421.437, 885.308 422.329, 884.489 423.009 C 883.455 423.867, 883 423.902, 883 423.122 C 883 422.505, 882.502 422, 881.893 422 C 881.284 422, 881.047 422.681, 881.367 423.514 C 881.707 424.399, 880.725 426.371, 879.003 428.264 C 877.384 430.044, 876.045 430.964, 876.029 430.309 C 876.013 429.654, 876.450 428.840, 877 428.500 C 877.550 428.160, 878 427.459, 878 426.941 C 878 426.423, 877.550 426, 877 426 C 876.450 426, 876 426.675, 876 427.500 C 876 428.325, 875.555 429, 875.012 429 C 873.764 429, 874.160 433.250, 875.500 434.235 C 876.147 434.710, 876.116 434.975, 875.411 434.985 C 874.812 434.993, 872.815 433.345, 870.974 431.321 C 869.133 429.298, 868.371 427.928, 869.281 428.278 C 870.191 428.627, 871.188 428.505, 871.496 428.007 C 871.804 427.508, 874.734 425.064, 878.008 422.574 C 882.116 419.450, 884.508 418.255, 885.730 418.718 C 887.358 419.334, 887.371 419.258, 885.889 417.762 C 884.040 415.895, 881.535 415.997, 879.740 418.012 C 878.688 419.192, 878.766 419.202, 880.250 418.079 C 881.212 417.351, 882 417.170, 882 417.678 C 882 419.274, 879.814 420.866, 878.378 420.315 C 877.547 419.996, 877 420.447, 877 421.452 C 877 422.368, 876.610 422.877, 876.134 422.583 C 875.657 422.288, 874.420 422.988, 873.384 424.138 C 872.348 425.288, 870.560 426.589, 869.411 427.029 C 867.400 427.798, 866.757 431.090, 868.313 432.646 C 870.609 434.943, 865.360 435.333, 861.312 433.167 C 858.142 431.471, 857.449 431.734, 859.402 433.892 C 860.469 435.071, 863.164 436.040, 866.550 436.463 C 870.172 436.916, 872.424 437.768, 873.299 439.016 C 874.021 440.047, 875.828 441.111, 877.314 441.381 C 878.801 441.650, 880.913 442.155, 882.009 442.503 C 883.104 442.850, 884 442.743, 884 442.265 C 884 441.786, 885.870 439.506, 888.156 437.197 C 892.584 432.725, 896.009 431.912, 901.552 434.020 C 903.027 434.580, 907.380 435.269, 911.225 435.549 C 917.860 436.032, 918.335 435.922, 920.514 433.386 C 922.068 431.576, 923.367 430.927, 924.534 431.375 C 927.313 432.441, 932.984 429.910, 933.105 427.549 C 933.647 416.938, 933.138 412.978, 930.862 410.099 C 929.563 408.455, 927.686 407.086, 926.691 407.055 C 925.696 407.025, 925.119 407.384, 925.410 407.854 C 926.097 408.966, 921.598 411, 918.453 411 C 916.939 411, 916 411.574, 916 412.500 C 916 414.281, 913.874 414.474, 912.242 412.842 C 911.366 411.966, 910.745 411.967, 909.683 412.848 C 908.553 413.786, 907.727 413.186, 905.427 409.756 C 901.898 404.493, 897.831 400.065, 896.491 400.028 C 895.935 400.012, 894.908 400.917, 894.208 402.039 M 868.272 407.985 L 873.309 412.969 870.654 415.057 C 869.194 416.206, 868 417.562, 868 418.073 C 868 419.750, 872.049 419.039, 872.683 417.250 C 873.025 416.288, 873.930 414.768, 874.695 413.874 C 875.898 412.467, 875.850 412.156, 874.337 411.576 C 872.812 410.991, 872.968 410.600, 875.544 408.542 C 877.170 407.242, 878.208 405.884, 877.851 405.524 C 877.494 405.164, 876.115 406.042, 874.785 407.476 L 872.368 410.083 868.613 406.541 C 862.854 401.110, 862.564 402.337, 868.272 407.985 M 964.314 416.750 C 963.972 417.712, 963.539 418.790, 963.352 419.145 C 963.165 419.500, 963.638 420.031, 964.403 420.324 C 965.349 420.687, 965.931 419.922, 966.224 417.929 C 966.690 414.752, 965.325 413.909, 964.314 416.750 M 965 422.522 C 965 423.374, 975.889 434.003, 976.728 433.970 C 977.153 433.953, 976.703 433.475, 975.729 432.908 C 974.755 432.341, 974.194 431.496, 974.482 431.030 C 974.770 430.564, 973.542 429.033, 971.753 427.628 C 969.964 426.223, 967.712 424.382, 966.750 423.537 C 965.788 422.691, 965 422.235, 965 422.522 M 569.658 475.450 C 568.849 477.556, 569.623 479, 571.559 479 C 573.357 479, 573.389 477.915, 571.661 475.551 C 570.407 473.836, 570.279 473.830, 569.658 475.450 M 901 474.929 C 901 475.439, 900.271 476.586, 899.381 477.476 C 898.490 478.367, 898.038 479.371, 898.375 479.708 C 899.225 480.559, 903.084 475.945, 902.420 474.871 C 901.715 473.731, 901 473.760, 901 474.929 M 910.753 476.353 C 909.415 477.593, 907.841 478.447, 907.255 478.252 C 906.668 478.056, 904.683 479.203, 902.844 480.801 C 901.005 482.399, 898.923 483.505, 898.218 483.259 C 897.513 483.013, 895.488 483.914, 893.718 485.262 C 891.948 486.610, 889.487 488.032, 888.250 488.424 C 885.498 489.294, 885.271 490.931, 887.931 490.730 C 888.993 490.650, 889.611 490.180, 889.305 489.685 C 889 489.191, 889.818 489.055, 891.125 489.384 C 892.431 489.712, 892.919 489.717, 892.208 489.394 C 890.389 488.565, 892.669 485.936, 894.573 486.666 C 895.469 487.010, 896 486.572, 896 485.490 C 896 484.270, 896.573 483.917, 897.963 484.280 C 899.043 484.563, 900.465 484.145, 901.123 483.351 C 901.782 482.558, 902.900 482.132, 903.609 482.404 C 904.417 482.714, 904.691 482.358, 904.342 481.449 C 904.033 480.642, 904.388 479.949, 905.143 479.885 C 905.889 479.821, 907.077 479.709, 907.783 479.635 C 908.489 479.561, 909.502 478.825, 910.033 478 C 910.893 476.667, 911.122 476.667, 912.094 478 C 913.021 479.270, 913.102 479.232, 912.626 477.750 C 912.273 476.655, 912.581 476, 913.448 476 C 914.210 476, 915.013 476.540, 915.234 477.201 C 915.483 477.948, 915.867 478.024, 916.252 477.401 C 916.592 476.851, 916.041 475.882, 915.028 475.250 C 913.521 474.309, 912.742 474.510, 910.753 476.353 M 883 491.167 C 883 491.808, 882.716 492.049, 882.369 491.702 C 882.021 491.355, 880.784 491.600, 879.619 492.248 C 878.453 492.895, 877.149 493.325, 876.720 493.202 C 876.291 493.080, 874.716 493.607, 873.220 494.374 C 871.637 495.186, 868.758 495.591, 866.335 495.343 C 864.044 495.109, 861.880 495.386, 861.526 495.958 C 861.172 496.531, 859.757 497, 858.382 497 C 857.007 497, 856.148 497.430, 856.473 497.956 C 856.798 498.482, 857.725 498.659, 858.532 498.349 C 859.339 498.040, 860 498.339, 860 499.015 C 860 499.985, 860.315 499.984, 861.489 499.009 C 862.308 498.329, 862.781 497.454, 862.540 497.065 C 862.299 496.675, 864.217 496.318, 866.801 496.271 C 873.270 496.154, 875 495.825, 875 494.711 C 875 494.185, 875.670 494.311, 876.488 494.990 C 877.690 495.988, 878.091 495.927, 878.571 494.676 C 878.898 493.824, 879.719 493.339, 880.396 493.598 C 881.073 493.858, 882.455 493.155, 883.468 492.035 C 884.502 490.893, 884.803 490, 884.155 490 C 883.520 490, 883 490.525, 883 491.167 M 966.300 540.800 C 962.371 545.030, 959.381 548.715, 959.656 548.989 C 959.930 549.264, 961.984 547.466, 964.221 544.994 C 966.457 542.522, 969.627 539.018, 971.266 537.206 C 972.905 535.394, 974.065 533.732, 973.844 533.511 C 973.624 533.290, 970.229 536.570, 966.300 540.800 M 918.675 544.658 C 918.313 545.020, 918.547 545.954, 919.194 546.734 C 920.109 547.837, 920.058 548.346, 918.965 549.022 C 918.191 549.500, 917.907 550.240, 918.333 550.667 C 918.760 551.093, 919.484 550.835, 919.943 550.093 C 920.441 549.287, 921.325 549.062, 922.138 549.533 C 922.887 549.967, 922.483 549.204, 921.241 547.837 C 919.998 546.470, 919.286 545.048, 919.658 544.676 C 920.029 544.304, 920.108 544, 919.833 544 C 919.558 544, 919.037 544.296, 918.675 544.658 M 924.429 549.851 C 924.429 551.201, 925.077 551.496, 927.325 551.166 C 929.098 550.905, 930.560 551.276, 931.095 552.120 C 931.756 553.164, 931.973 553.188, 931.985 552.219 C 931.993 551.514, 931.328 550.679, 930.506 550.364 C 929.684 550.048, 929.320 549.275, 929.698 548.645 C 930.075 548.015, 929.623 548.118, 928.692 548.872 C 927.473 549.861, 926.640 549.946, 925.714 549.178 C 924.750 548.378, 924.429 548.546, 924.429 549.851 M 887.494 553.006 C 886.496 554.110, 885.976 555.310, 886.339 555.673 C 886.703 556.036, 887 555.778, 887 555.099 C 887 554.338, 887.735 554.098, 888.916 554.473 C 889.970 554.808, 891.109 554.633, 891.448 554.084 C 891.787 553.536, 892.837 553.335, 893.782 553.638 C 895.205 554.094, 895.248 554.011, 894.034 553.152 C 893.014 552.431, 892.168 552.445, 891.259 553.200 C 890.540 553.797, 889.638 553.971, 889.255 553.588 C 888.872 553.205, 889.220 552.473, 890.029 551.961 C 890.838 551.449, 891.007 551.024, 890.405 551.015 C 889.803 551.007, 888.493 551.903, 887.494 553.006 M 949.035 553.542 C 951.109 556.041, 948.718 557.450, 946.521 555.024 C 945.514 553.911, 944.225 553, 943.656 553 C 943.088 553, 943.618 553.927, 944.834 555.060 C 946.099 556.239, 946.731 557.628, 946.311 558.310 C 945.907 558.964, 946.810 558.694, 948.317 557.708 C 949.824 556.723, 951.606 556.233, 952.278 556.620 C 952.950 557.006, 952.409 556.125, 951.076 554.661 C 948.498 551.832, 946.878 550.944, 949.035 553.542 M 887.577 577.875 C 887.235 578.430, 885.164 578.668, 882.977 578.404 C 880.790 578.140, 879 578.343, 879 578.855 C 879 580.485, 882.193 581.082, 883.877 579.767 C 885.291 578.663, 885.337 578.708, 884.238 580.117 C 882.530 582.306, 885.349 585.057, 887.292 583.098 C 888.238 582.145, 888.121 582.026, 886.750 582.548 C 884.263 583.494, 884.571 581.414, 887.190 579.580 C 888.394 578.736, 889.114 577.781, 888.790 577.456 C 888.466 577.132, 887.920 577.321, 887.577 577.875" stroke="none" fill="#3a7c8f" fill-rule="evenodd"/><path d="M 425 178.553 C 374.368 185.583, 345.520 207.193, 335.521 245.581 C 332.640 256.640, 331.793 272.964, 332.245 308.689 C 332.647 340.489, 332.873 344.192, 334.859 351.500 C 341.382 375.512, 350.801 387.556, 409.541 447 C 430.465 468.175, 449.475 487.808, 451.784 490.629 C 458.980 499.418, 466.902 512.991, 469.755 521.418 L 472.491 529.500 472.495 565.676 C 472.500 600.658, 472.432 601.944, 470.438 604.614 C 465.967 610.604, 463.698 611.500, 453 611.500 C 442.303 611.500, 440.034 610.605, 435.562 604.616 C 433.540 601.909, 433.495 600.676, 433.220 541.427 L 432.940 481 382.400 481 L 331.859 481 332.285 546.250 C 332.651 602.170, 332.945 612.468, 334.345 618.272 C 343.249 655.188, 367.522 674.969, 414.500 683.595 C 428.399 686.147, 470.880 686.717, 487.693 684.577 C 545.776 677.184, 576.361 650.275, 582.096 601.521 C 582.757 595.904, 583.002 576.084, 582.746 549 C 582.364 508.683, 582.180 504.915, 580.222 497.500 C 577.082 485.608, 573.846 478.378, 571.843 478.779 C 569.641 479.220, 568.652 477.441, 569.885 475.258 C 573.019 469.709, 551.020 443.964, 497.457 390.500 C 479.274 372.350, 461.801 354.004, 458.629 349.732 C 451.756 340.476, 444.793 327.607, 442.542 320 C 440.570 313.338, 437.629 273.618, 438.582 266.520 C 440.500 252.235, 446.248 246, 457.500 246 C 464.266 246, 468.370 247.944, 470.733 252.267 C 472.341 255.209, 472.526 259.838, 472.786 303.750 L 473.073 352 523.635 352 L 574.197 352 573.696 301.250 C 573.378 268.963, 572.779 248.499, 572.050 245 C 564.438 208.444, 542.881 188.946, 500 179.831 C 487.179 177.106, 441.081 176.320, 425 178.553 M 700 178.053 C 688.203 179.475, 673.394 182.889, 663.173 186.542 C 648.391 191.825, 639.793 197.215, 628.943 208 C 620.758 216.137, 618.717 218.863, 614.719 227 C 612.152 232.225, 609.037 240.325, 607.796 245 L 605.540 253.500 605.212 430 C 604.969 561.206, 605.185 608.423, 606.055 613.994 C 612.354 654.363, 642.897 677.979, 697.401 684.624 C 714.092 686.659, 754.917 686.046, 768 683.564 C 794.678 678.504, 817.679 667.870, 832.817 653.596 C 839.362 647.425, 847.093 636.040, 849.982 628.318 C 855.321 614.048, 855.031 625.106, 855.092 434 C 855.144 272.611, 854.999 255.780, 853.495 248.562 C 845.634 210.829, 819.868 188.665, 773.632 179.863 C 764.331 178.092, 757.978 177.694, 735 177.446 C 719.875 177.283, 704.125 177.556, 700 178.053 M 201 432 L 201 682 256 682 L 311 682 311 432 L 311 182 256 182 L 201 182 201 432 M 720.071 247.752 C 718.185 248.713, 715.795 250.658, 714.759 252.072 C 712.931 254.568, 712.874 259.877, 712.857 431.375 C 712.839 599.911, 712.922 608.230, 714.639 610.802 C 715.629 612.286, 716.353 614.175, 716.248 615 C 716.143 615.835, 716.293 615.979, 716.587 615.325 C 716.982 614.448, 717.981 614.512, 720.526 615.575 C 725.163 617.513, 736.076 617.408, 740.318 615.385 C 745.998 612.677, 747.422 609.053, 747.742 596.500 C 747.897 590.450, 748.130 529.184, 748.261 460.354 L 748.500 335.207 745.261 338.354 C 743.479 340.084, 742.017 342.063, 742.011 342.750 C 742.005 343.438, 741.594 344, 741.098 344 C 740.602 344, 739.260 345.462, 738.115 347.250 C 736.970 349.038, 736.026 349.996, 736.017 349.379 C 736.008 348.762, 738.720 344.851, 742.044 340.686 L 748.088 333.114 747.794 294.307 C 747.521 258.264, 747.365 255.277, 745.602 252.365 C 744.558 250.640, 742.181 248.503, 740.318 247.615 C 735.662 245.394, 724.547 245.469, 720.071 247.752 M 878.846 284.116 C 877.849 284.748, 878.031 284.973, 879.550 284.985 C 880.678 284.993, 882.196 285.563, 882.925 286.250 C 883.985 287.250, 884.342 287.250, 884.708 286.250 C 884.960 285.563, 885.755 285, 886.475 285 C 887.908 285, 899 295.692, 899 297.074 C 899 298.199, 903.172 300.486, 904.675 300.183 C 905.321 300.053, 906.135 300.409, 906.484 300.973 C 906.833 301.538, 906.347 302, 905.404 302 C 903.812 302, 903.818 302.141, 905.483 303.981 C 907.219 305.899, 907.200 305.991, 904.888 306.864 C 903.575 307.360, 902.163 307.566, 901.750 307.324 C 901.337 307.081, 901 307.627, 901 308.538 C 901 309.818, 900.149 309.485, 897.250 307.069 C 889.119 300.294, 886.920 298.746, 886.302 299.364 C 885.442 300.224, 889.993 305, 891.671 305 C 893.322 305, 901 311.845, 901 313.316 C 901 314.030, 900.590 313.990, 899.800 313.200 C 898.239 311.639, 896.933 311.665, 897.250 313.250 C 897.391 313.956, 896.725 314.369, 895.718 314.199 C 894.268 313.954, 894.055 314.372, 894.577 316.449 C 895.057 318.362, 894.829 319, 893.667 319 C 892.815 319, 891.826 318.528, 891.470 317.951 C 891.028 317.236, 890.370 317.278, 889.399 318.084 C 888.265 319.025, 888.224 319.566, 889.200 320.741 C 891.080 323.006, 887.737 325.160, 884.624 323.690 C 882.608 322.739, 882.451 322.266, 883.357 319.864 C 883.926 318.357, 884.663 317.292, 884.996 317.497 C 885.328 317.703, 886.212 316.887, 886.961 315.685 C 888.202 313.692, 888.175 313.621, 886.661 314.872 C 885.747 315.627, 885 315.910, 885 315.500 C 885 315.090, 884.325 315.315, 883.500 316 C 882.675 316.685, 882 316.813, 882 316.284 C 882 315.756, 880.346 315.262, 878.324 315.186 C 876.302 315.110, 874.367 314.594, 874.024 314.039 C 873.073 312.500, 867.349 311.626, 866.562 312.899 C 866.188 313.505, 865.097 314, 864.137 314 C 863.178 314, 860.954 315.484, 859.196 317.298 L 856 320.595 856 333.969 C 856 345.010, 856.289 347.661, 857.655 349.171 C 859.195 350.873, 859.195 351, 857.655 351 C 856.528 351, 856 351.853, 856 353.674 L 856 356.349 858.250 354.359 C 861.533 351.456, 866 348.822, 866 349.790 C 866 350.250, 863.750 352.551, 861 354.902 L 856 359.178 856 378.922 L 856 398.667 859.667 402.333 C 863.871 406.537, 863.065 407.395, 858.774 403.283 L 855.939 400.567 856.086 415.270 C 856.167 423.357, 856.611 429.740, 857.073 429.455 C 857.535 429.169, 857.781 428.388, 857.620 427.718 C 857.459 427.048, 857.515 426.834, 857.745 427.242 C 857.974 427.650, 859.138 427.481, 860.331 426.867 C 861.932 426.042, 861.650 426.645, 859.250 429.172 L 856 432.595 856 461.329 C 856 487.071, 856.171 490.128, 857.645 490.694 C 858.652 491.081, 859.866 490.584, 860.779 489.412 C 861.935 487.929, 862.141 487.874, 861.698 489.167 C 861.358 490.158, 861.755 491.076, 862.674 491.429 C 863.763 491.846, 864.051 491.574, 863.643 490.511 C 863.324 489.680, 863.499 489, 864.031 489 C 864.564 489, 865 489.402, 865 489.893 C 865 490.384, 865.685 491.049, 866.523 491.371 C 867.752 491.842, 867.849 491.586, 867.023 490.043 C 865.728 487.623, 865.735 487, 867.059 487 C 867.641 487, 867.840 487.450, 867.500 488 C 867.160 488.550, 867.632 489, 868.548 489 C 869.723 489, 870.017 488.484, 869.545 487.250 C 869.054 485.964, 869.438 486.101, 870.993 487.767 C 872.885 489.793, 873.270 489.873, 874.626 488.517 C 875.460 487.683, 876.786 487, 877.571 487 C 878.357 487, 879 486.592, 879 486.094 C 879 485.011, 875.202 485.864, 874.425 487.121 C 873.685 488.318, 872 488.234, 872 487 C 872 486.450, 872.723 486, 873.607 486 C 874.625 486, 875.003 485.450, 874.638 484.500 C 873.948 482.700, 875.613 482.456, 876.341 484.250 C 876.737 485.228, 877.052 485.209, 877.785 484.166 C 878.545 483.083, 878.836 483.130, 879.329 484.416 C 879.664 485.287, 880.449 486, 881.076 486 C 881.702 486, 881.966 485.353, 881.662 484.562 C 881.306 483.634, 881.860 483.014, 883.227 482.812 C 884.391 482.641, 885.549 481.875, 885.801 481.111 C 886.107 480.185, 885.831 479.987, 884.975 480.515 C 884.115 481.047, 883.936 480.912, 884.435 480.106 C 885.010 479.175, 885.522 479.188, 886.699 480.165 C 887.671 480.972, 887.819 481.560, 887.110 481.797 C 885.989 482.170, 885.513 485, 886.571 485 C 886.886 485, 887.830 484.312, 888.671 483.472 C 889.890 482.253, 889.952 481.647, 888.977 480.472 C 887.352 478.514, 888.440 478.583, 890.421 480.564 C 891.281 481.424, 892.438 481.847, 892.992 481.505 C 894.463 480.596, 894.228 478.751, 892.750 479.601 C 892.024 480.019, 891.849 479.939, 892.333 479.410 C 892.792 478.910, 893.541 478.500, 894 478.500 C 895.777 478.500, 901.123 473.764, 900.673 472.589 C 900.370 471.801, 900.981 471.437, 902.348 471.591 C 905.570 471.954, 905.675 472.072, 903.522 472.913 C 901.552 473.683, 901.552 473.690, 903.522 474.744 C 905.228 475.656, 905.520 475.471, 905.644 473.397 C 905.808 470.678, 909.771 466.975, 911.717 467.722 C 912.423 467.992, 913 467.668, 913 467 C 913 466.263, 913.675 466.045, 914.720 466.446 C 915.665 466.809, 916.152 466.818, 915.800 466.467 C 915.449 466.115, 916.587 464.525, 918.331 462.933 C 921.362 460.164, 921.384 460.091, 918.835 461.253 C 917.370 461.921, 916.429 462.925, 916.746 463.484 C 917.062 464.043, 916.944 464.158, 916.485 463.741 C 916.025 463.323, 914.602 463.964, 913.324 465.165 C 912.046 466.366, 911 466.920, 911 466.397 C 911 465.003, 916.397 460.500, 918.068 460.500 C 918.962 460.500, 919.481 459.508, 919.449 457.858 C 919.411 455.928, 919.795 455.368, 920.872 455.781 C 921.919 456.183, 922.167 455.876, 921.725 454.725 C 921.264 453.525, 921.525 453.264, 922.725 453.725 C 923.946 454.193, 924.186 453.927, 923.696 452.650 C 923.131 451.179, 923.335 451.109, 925.235 452.126 C 927.359 453.262, 927.366 453.321, 925.463 454.031 C 922.488 455.142, 919.629 458.652, 921.006 459.504 C 921.667 459.912, 924.520 457.808, 927.821 454.478 C 932.113 450.149, 933.583 449.165, 933.838 450.450 C 934.024 451.386, 933.349 452.755, 932.339 453.494 C 931.329 454.232, 930.848 455.181, 931.269 455.602 C 932.176 456.509, 926.150 463, 924.402 463 C 923.739 463, 922.318 464.688, 921.244 466.750 C 919.815 469.497, 918.652 470.500, 916.896 470.500 C 915.496 470.500, 914.500 471.089, 914.500 471.917 C 914.500 474.298, 916.517 474.177, 919.265 471.630 C 920.701 470.299, 922.053 469.386, 922.268 469.601 C 922.483 469.816, 923.748 468.760, 925.079 467.253 C 926.843 465.258, 926.936 464.987, 925.421 466.257 C 922.967 468.315, 921.273 468.581, 922.869 466.658 C 923.481 465.920, 923.762 465.095, 923.491 464.825 C 923.221 464.554, 923.675 464.258, 924.500 464.167 C 925.325 464.075, 926.694 463.925, 927.543 463.833 C 928.392 463.742, 928.856 463.067, 928.574 462.333 C 928.070 461.018, 929.063 460.610, 932 460.923 C 933.333 461.066, 933.333 460.968, 932 460.042 C 930.808 459.214, 930.764 458.829, 931.784 458.170 C 932.490 457.713, 932.780 456.589, 932.427 455.670 C 931.466 453.167, 933.518 453.658, 934.852 456.250 L 936.011 458.500 935.438 456.250 C 934.679 453.270, 936.538 453.366, 938.532 456.409 C 939.401 457.734, 941.641 459.867, 943.511 461.148 C 945.673 462.629, 947.525 465.120, 948.599 467.989 C 950.226 472.335, 953.060 476.036, 954.708 475.967 C 955.144 475.948, 954.521 475.116, 953.324 474.116 C 952.127 473.117, 950.510 470.094, 949.731 467.400 C 948.619 463.552, 947.446 461.911, 944.268 459.758 C 941.975 458.205, 939.938 455.890, 939.569 454.417 C 939.121 452.636, 938.441 452, 937.406 452.398 C 936.576 452.716, 936.150 452.566, 936.461 452.063 C 937.277 450.743, 934.905 446, 933.428 446 C 932.741 446, 931.055 447.334, 929.683 448.965 C 927.530 451.524, 927.018 451.726, 925.952 450.442 C 924.919 449.197, 925.014 449.068, 926.532 449.651 C 927.907 450.178, 928.203 449.971, 927.752 448.795 C 927.018 446.883, 928.763 444.972, 930.599 445.676 C 931.417 445.990, 932.450 445.068, 933.206 443.348 C 934.820 439.680, 935.990 438.860, 938.702 439.497 C 941.153 440.072, 947.490 445.538, 949.318 448.654 C 952.788 454.568, 958.180 462, 959.001 462 C 960.144 462, 954.618 453.308, 947.807 444.393 C 946.325 442.454, 945.373 440.192, 945.690 439.367 C 946.098 438.303, 946.576 438.176, 947.333 438.933 C 947.920 439.520, 948.846 440, 949.391 440 C 949.936 440, 949.509 439.325, 948.441 438.499 C 946.584 437.064, 946.579 436.952, 948.305 435.919 C 949.746 435.057, 949.869 434.547, 948.913 433.395 C 948.254 432.601, 948.009 431.658, 948.368 431.299 C 948.727 430.940, 949.692 431.513, 950.513 432.573 C 951.835 434.281, 951.933 434.295, 951.376 432.699 C 950.975 431.551, 951.608 429.931, 953.123 428.229 C 954.431 426.762, 954.765 426.121, 953.867 426.806 C 952.527 427.827, 952.123 427.762, 951.617 426.444 C 950.567 423.709, 950.927 422.758, 952.750 423.452 C 954.153 423.986, 954.252 423.869, 953.250 422.859 C 951.611 421.208, 951.651 419.929, 953.322 420.570 C 954.585 421.055, 957.353 416.886, 957.471 414.321 C 957.501 413.672, 957.826 412.840, 958.194 412.473 C 958.561 412.105, 958.620 411.173, 958.324 410.402 C 958.028 409.631, 958.300 409, 958.928 409 C 959.746 409, 959.778 408.453, 959.039 407.072 C 957.952 405.042, 958.593 402, 960.107 402 C 960.598 402, 961 401.523, 961 400.941 C 961 400.359, 960.550 400.160, 960 400.500 C 959.450 400.840, 959 400.641, 959 400.059 C 959 399.477, 959.477 399, 960.059 399 C 960.641 399, 960.836 398.544, 960.492 397.987 C 960.148 397.430, 960.564 395.576, 961.417 393.866 C 962.898 390.898, 962.720 388.437, 961.098 389.440 C 960.677 389.699, 960.333 389.237, 960.333 388.413 C 960.333 387.547, 960.918 387.138, 961.719 387.446 C 962.641 387.800, 962.836 387.564, 962.302 386.739 C 961.159 384.974, 961.308 376.662, 962.500 375.656 C 963.082 375.165, 962.768 375.047, 961.750 375.374 C 960.788 375.684, 960 375.501, 960 374.969 C 960 374.436, 960.437 374, 960.971 374 C 961.505 374, 961.842 371.972, 961.721 369.493 C 961.568 366.364, 961.118 365.131, 960.250 365.462 C 958.442 366.150, 958.716 364.955, 960.750 363.279 C 962.028 362.226, 962.095 361.959, 961 362.291 C 959.838 362.643, 959.518 361.872, 959.578 358.873 C 959.654 355.127, 958.635 353.689, 957.720 356.250 C 957.016 358.223, 956.085 356.697, 955.812 353.122 C 955.675 351.321, 955.231 349.643, 954.825 349.392 C 954.419 349.141, 954.323 348.321, 954.612 347.569 C 954.900 346.817, 954.675 345.917, 954.112 345.569 C 953.548 345.221, 953.319 344.333, 953.601 343.597 C 953.884 342.861, 953.414 341.989, 952.557 341.660 C 951.701 341.332, 951 340.551, 951 339.924 C 951 339.280, 951.712 339.059, 952.641 339.416 C 954.014 339.943, 954.076 339.796, 953.019 338.523 C 952.324 337.685, 951.135 337, 950.378 337 C 949.620 337, 949 336.520, 949 335.933 C 949 335.319, 949.853 335.136, 951.007 335.502 C 952.684 336.034, 952.561 335.669, 950.257 333.280 C 948.741 331.707, 946.938 330.599, 946.250 330.817 C 945.070 331.192, 944.525 329.208, 944.957 326.114 C 945.087 325.180, 944.555 324.937, 943.325 325.367 C 941.658 325.949, 941.644 325.892, 943.160 324.708 C 944.697 323.507, 944.681 323.231, 942.932 320.956 C 941.894 319.605, 941.034 318.972, 941.022 319.550 C 941.010 320.127, 941.489 321.089, 942.087 321.687 C 942.870 322.470, 942.869 322.963, 942.085 323.447 C 941.466 323.830, 940.576 323.016, 940.023 321.560 C 939.488 320.152, 938.588 319, 938.025 319 C 937.461 319, 937 318.502, 937 317.893 C 937 317.284, 937.698 317.054, 938.552 317.382 C 939.442 317.723, 939.843 317.555, 939.493 316.989 C 939.157 316.445, 938.248 316, 937.472 316 C 936.676 316, 936.296 315.392, 936.600 314.601 C 936.895 313.832, 936.661 312.908, 936.080 312.549 C 935.407 312.134, 935.269 312.552, 935.699 313.698 C 936.292 315.281, 936.170 315.333, 934.687 314.128 C 933.759 313.373, 933 312.360, 933 311.878 C 933 310.383, 928.981 306.894, 927.975 307.515 C 927.449 307.841, 927.289 307.409, 927.618 306.552 C 928.149 305.170, 927.095 304.536, 924.811 304.861 C 924.432 304.915, 923.835 304.057, 923.485 302.953 C 923.121 301.807, 922.131 301.066, 921.174 301.224 C 920.086 301.403, 919.597 300.914, 919.777 299.825 C 920.151 297.555, 918.249 296.549, 916.432 298.056 C 915.618 298.732, 914.625 298.934, 914.226 298.506 C 913.827 298.077, 914.063 297.525, 914.750 297.280 C 915.438 297.034, 916 296.394, 916 295.858 C 916 295.321, 915.526 295.175, 914.946 295.533 C 914.366 295.892, 912.748 294.906, 911.350 293.342 C 908.704 290.383, 908.688 290.334, 912.702 297.342 C 913.481 298.703, 913.553 299.658, 912.905 300.059 C 912.314 300.424, 912.615 301.254, 913.640 302.088 C 915.156 303.322, 915.300 303.302, 914.787 301.928 C 914.443 301.006, 914.943 299.892, 915.998 299.234 C 917.490 298.301, 917.916 298.483, 918.506 300.305 C 918.897 301.512, 919.152 302.885, 919.073 303.355 C 918.994 303.826, 919.451 304.838, 920.087 305.605 C 920.772 306.430, 920.836 307, 920.245 307 C 919.695 307, 918.685 306.325, 918 305.500 C 917.315 304.675, 916.121 304, 915.347 304 C 914.573 304, 912.573 302.445, 910.904 300.543 C 909.235 298.642, 906.117 296.314, 903.974 295.369 C 901.832 294.424, 899.847 293.044, 899.562 292.302 C 899.150 291.226, 899.469 291.181, 901.143 292.077 C 902.635 292.875, 903.045 292.882, 902.562 292.100 C 902.188 291.495, 902.359 291, 902.941 291 C 904.583 291, 904.189 289.287, 902.389 288.596 C 901.299 288.178, 900.944 288.413, 901.293 289.322 C 901.652 290.257, 900.929 290.667, 898.921 290.667 C 896.602 290.667, 896.254 290.399, 897.157 289.310 C 898.035 288.253, 897.947 288.083, 896.762 288.538 C 895.831 288.895, 894.436 288.099, 893.166 286.484 C 891.451 284.303, 890.150 283.797, 885.642 283.555 C 882.645 283.394, 879.587 283.647, 878.846 284.116 M 894.156 285.458 C 894.516 285.836, 896.316 286.358, 898.156 286.620 C 899.995 286.881, 902.175 287.325, 903 287.607 C 903.976 287.940, 904.151 287.785, 903.500 287.162 C 902.367 286.079, 893.142 284.397, 894.156 285.458 M 884 303.836 C 884 304.451, 885.125 305.691, 886.500 306.592 C 887.875 307.493, 889 308.853, 889 309.615 C 889 310.377, 889.638 311, 890.417 311 C 891.196 311, 892.013 311.540, 892.234 312.201 C 892.454 312.863, 892.858 312.975, 893.134 312.451 C 893.408 311.928, 891.466 309.524, 888.817 307.109 C 886.168 304.693, 884 303.221, 884 303.836 M 920 303.852 C 920 304.138, 921.013 305.511, 922.250 306.905 C 923.487 308.299, 923.765 308.879, 922.867 308.194 C 921.547 307.188, 921.131 307.215, 920.702 308.333 C 920.309 309.358, 920.928 309.630, 923.086 309.378 C 924.688 309.192, 926 309.480, 926 310.020 C 926 310.942, 924.532 311.416, 922.676 311.094 C 922.222 311.015, 922.124 311.392, 922.458 311.932 C 922.791 312.471, 923.679 312.677, 924.431 312.388 C 925.183 312.100, 926.083 312.325, 926.431 312.888 C 926.779 313.452, 927.803 313.629, 928.706 313.283 C 929.970 312.798, 930.190 313.063, 929.662 314.438 C 929.172 315.716, 929.371 316.072, 930.364 315.690 C 931.228 315.359, 931.704 315.789, 931.626 316.829 C 931.557 317.748, 932.046 318.393, 932.714 318.262 C 933.465 318.115, 933.685 318.658, 933.290 319.686 C 932.840 320.859, 933.073 321.186, 934.082 320.799 C 934.868 320.497, 936.064 320.843, 936.741 321.568 C 937.718 322.613, 937.688 323.169, 936.598 324.260 C 935.432 325.425, 935.661 325.927, 938.109 327.567 C 941.462 329.814, 941.863 331.039, 939 330.290 C 937.900 330.002, 937 330.255, 937 330.852 C 937 331.449, 937.563 331.722, 938.250 331.458 C 938.938 331.195, 940.737 332.127, 942.250 333.530 C 945.586 336.625, 945.766 337.473, 942.750 335.889 C 940.977 334.958, 941.137 335.330, 943.500 337.643 C 945.150 339.257, 946.775 340.459, 947.112 340.315 C 947.449 340.170, 947.674 341.016, 947.612 342.193 C 947.550 343.371, 946.937 344.522, 946.249 344.751 C 945.501 345, 945.218 344.596, 945.545 343.744 C 945.845 342.961, 945.283 341.686, 944.296 340.910 C 942.668 339.632, 942.625 339.660, 943.836 341.206 C 944.571 342.145, 944.913 343.331, 944.597 343.843 C 944.281 344.355, 944.687 345.325, 945.500 346 C 946.313 346.675, 946.686 347.738, 946.329 348.363 C 945.964 349.002, 946.073 349.140, 946.577 348.679 C 947.071 348.228, 947.480 347.142, 947.487 346.266 C 947.494 345.389, 948.058 344.485, 948.741 344.256 C 949.622 343.960, 949.813 344.685, 949.399 346.756 C 949.006 348.720, 949.336 350.193, 950.408 351.265 C 952.413 353.270, 952.456 354.389, 950.500 353.638 C 949.586 353.288, 949 353.637, 949 354.531 C 949 355.339, 949.648 356, 950.441 356 C 951.234 356, 952.157 356.445, 952.493 356.989 C 952.858 357.580, 952.379 357.712, 951.302 357.319 C 949.676 356.725, 949.694 356.881, 951.487 358.921 C 953.359 361.051, 953.374 361.254, 951.737 362.451 C 949.531 364.063, 949.489 365.133, 951.664 364.299 C 952.775 363.872, 953.090 364.045, 952.612 364.819 C 952.144 365.575, 952.434 365.771, 953.448 365.382 C 954.302 365.054, 955 365.254, 955 365.826 C 955 366.397, 954.100 367.151, 953 367.500 C 951.900 367.849, 951 368.644, 951 369.267 C 951 370.106, 951.292 370.108, 952.124 369.276 C 953.972 367.428, 955.953 369.993, 954.873 372.834 C 954.385 374.118, 954.221 375.549, 954.509 376.015 C 954.797 376.481, 954.580 377.142, 954.026 377.484 C 953.379 377.884, 953.463 378.585, 954.260 379.448 C 954.942 380.186, 955.741 380.645, 956.036 380.468 C 956.330 380.292, 956.571 381.025, 956.571 382.098 C 956.571 383.317, 956.069 383.857, 955.234 383.536 C 954.498 383.254, 954.152 383.437, 954.464 383.942 C 954.777 384.448, 954.548 385.161, 953.956 385.527 C 953.257 385.959, 953.474 386.626, 954.575 387.431 C 956.123 388.563, 956.021 388.900, 953.395 391.335 C 951.814 392.801, 950.988 394, 951.560 394 C 952.132 394, 953.140 393.460, 953.800 392.800 C 954.467 392.133, 955 392.044, 955 392.600 C 955 393.150, 954.492 394.108, 953.871 394.729 C 952.154 396.446, 951.964 403.228, 953.651 402.580 C 955.404 401.908, 955.369 402.773, 953.571 404.571 C 951.777 406.366, 950.907 406.405, 951.577 404.660 C 951.860 403.923, 951.396 402.743, 950.546 402.038 C 949.633 401.280, 949 401.180, 949 401.794 C 949 402.366, 949.563 403.044, 950.250 403.302 C 951.119 403.628, 950.891 404.271, 949.500 405.413 C 947.598 406.974, 947.593 407.041, 949.396 406.777 C 950.439 406.625, 951.505 407.110, 951.765 407.855 C 952.107 408.837, 951.654 409.025, 950.118 408.538 C 947.601 407.739, 947.337 408.795, 949.634 410.475 C 951.076 411.529, 951.094 411.833, 949.786 413.055 C 948.970 413.817, 948.517 415.262, 948.780 416.266 C 949.052 417.307, 948.450 418.751, 947.379 419.627 C 945.794 420.923, 945.766 421.080, 947.199 420.633 C 948.374 420.266, 948.730 420.540, 948.354 421.520 C 948.011 422.413, 946.742 422.814, 944.929 422.603 C 943.319 422.416, 942.302 422.680, 942.625 423.202 C 942.942 423.716, 943.832 423.895, 944.601 423.600 C 947.110 422.637, 946.123 426.420, 942.963 429.880 C 940.468 432.611, 940.146 433.470, 941.159 434.691 C 942.181 435.923, 942.077 436.120, 940.550 435.839 C 939.537 435.653, 938.535 435.991, 938.323 436.591 C 937.817 438.029, 942.825 437.708, 945.798 436.112 C 947.438 435.231, 947.920 434.322, 947.479 432.934 C 947.077 431.667, 947.408 430.780, 948.431 430.388 C 949.391 430.020, 950.006 428.565, 950.015 426.643 C 950.032 422.883, 952.200 418.401, 953.832 418.750 C 954.474 418.887, 954.929 418.662, 954.841 418.250 C 954.754 417.837, 955.029 416.707, 955.453 415.738 C 955.877 414.768, 956.010 412.521, 955.749 410.743 C 955.469 408.837, 955.874 406.595, 956.736 405.280 C 960.303 399.837, 960.213 360.637, 956.627 357.560 C 955.947 356.977, 954.589 353.350, 953.608 349.500 C 952.627 345.650, 951.375 341.957, 950.826 341.294 C 950.277 340.630, 950.089 339.665, 950.408 339.149 C 950.727 338.632, 950.269 337.934, 949.391 337.596 C 948.479 337.247, 948.039 336.342, 948.365 335.492 C 948.680 334.671, 948.475 334, 947.910 334 C 947.344 334, 947.167 333.539, 947.515 332.975 C 947.864 332.412, 947.590 332.074, 946.906 332.225 C 946.223 332.376, 945.177 331.591, 944.582 330.479 C 943.987 329.368, 942.487 327.048, 941.250 325.325 C 940.013 323.601, 939 321.746, 939 321.203 C 939 320.659, 938.325 319.955, 937.500 319.638 C 936.675 319.322, 936 318.415, 936 317.624 C 936 316.833, 933.638 314.053, 930.750 311.446 C 927.862 308.840, 925.612 306.323, 925.750 305.854 C 925.888 305.384, 925.663 305.053, 925.250 305.118 C 923.385 305.413, 921.927 304.927, 922.397 304.167 C 922.680 303.708, 922.257 303.333, 921.456 303.333 C 920.655 303.333, 920 303.567, 920 303.852 M 867.446 326.250 C 861.762 332.520, 859.782 338.406, 865.108 333.198 C 866.818 331.527, 867.919 329.679, 867.556 329.091 C 867.151 328.435, 867.495 328.253, 868.448 328.618 C 869.468 329.010, 870 328.643, 870 327.548 C 870 326.632, 870.445 326.157, 870.989 326.493 C 871.576 326.856, 871.710 326.407, 871.319 325.388 C 870.872 324.224, 871.036 323.904, 871.830 324.395 C 872.474 324.793, 873 324.641, 873 324.059 C 873 321.998, 870.354 323.042, 867.446 326.250 M 868.074 333.933 C 866.919 334.664, 867.278 335.552, 869.970 338.619 C 876.746 346.336, 878 347.499, 878 346.069 C 878 345.292, 877.330 343.917, 876.511 343.012 C 875.169 341.529, 875.413 341.078, 878.987 338.433 C 881.168 336.820, 882.963 335.163, 882.976 334.750 C 883.030 333.064, 880.399 334.190, 877.325 337.170 L 874.055 340.339 871.777 337.439 C 870.525 335.844, 869.612 334.193, 869.750 333.769 C 870.066 332.796, 869.835 332.818, 868.074 333.933 M 745.653 341.831 C 743.968 343.693, 744.342 345, 746.561 345 C 747.242 345, 747.724 343.887, 747.644 342.501 C 747.565 341.126, 747.457 340.001, 747.405 340.001 C 747.353 340, 746.564 340.824, 745.653 341.831 M 866.229 342.944 C 864.453 344.495, 863 346.351, 863 347.070 C 863 347.858, 863.810 347.507, 865.039 346.189 C 866.160 344.985, 867.462 344, 867.932 344 C 868.781 344, 870.315 340.982, 869.753 340.419 C 869.591 340.257, 868.005 341.393, 866.229 342.944 M 739.713 352.685 C 739.322 354.642, 738.302 356.087, 737.027 356.492 C 735.149 357.088, 735.053 359, 736.902 359 C 738.157 359, 741.322 352.467, 740.810 350.931 C 740.554 350.161, 740.060 350.951, 739.713 352.685 M 917.215 372.664 C 913.295 375.921, 912.350 378.847, 915.624 377.591 C 916.759 377.155, 916.832 377.445, 915.988 379.023 C 914.900 381.056, 913.422 381.610, 912.833 380.205 C 912.233 378.774, 904.088 375.048, 903.531 375.950 C 903.232 376.434, 903.553 377.058, 904.244 377.338 C 905.209 377.730, 905.223 378.045, 904.305 378.699 C 903.648 379.167, 903.247 380.438, 903.414 381.525 C 903.580 382.611, 903.347 383.741, 902.896 384.036 C 902.445 384.330, 902.339 385.581, 902.662 386.814 C 903.110 388.529, 903.748 388.917, 905.374 388.463 C 906.978 388.015, 907.148 388.112, 906.064 388.858 C 904.914 389.651, 904.874 390.143, 905.863 391.335 C 906.699 392.342, 906.759 393.031, 906.049 393.470 C 905.472 393.826, 905 393.432, 905 392.594 C 905 391.756, 904.100 390.589, 903 390 C 901.260 389.069, 901 389.240, 901 391.310 C 901 393.515, 904.384 397.714, 905.855 397.333 C 906.210 397.242, 906.725 397.426, 907 397.744 C 907.275 398.061, 907.003 398.037, 906.395 397.691 C 905.788 397.345, 904.247 398.173, 902.971 399.531 C 901.695 400.889, 901.164 402, 901.791 402 C 902.417 402, 903.418 401.087, 904.015 399.972 C 904.612 398.857, 905.520 398.203, 906.032 398.520 C 907.186 399.233, 913.664 394.925, 915.604 392.155 C 916.953 390.229, 917.193 390.204, 919.811 391.706 C 923.362 393.744, 928.820 392.823, 932.299 389.599 C 934.094 387.935, 935.155 387.555, 935.904 388.304 C 937.531 389.931, 938.578 388.155, 937.248 386.026 C 936.601 384.990, 936.393 383.959, 936.786 383.735 C 937.179 383.511, 936.970 383.452, 936.323 383.604 C 935.676 383.757, 934.632 383.262, 934.004 382.505 C 933.376 381.748, 931.624 380.857, 930.110 380.524 C 926.284 379.684, 919.951 374.292, 920.650 372.470 C 920.958 371.668, 921.612 371.260, 922.105 371.565 C 922.597 371.869, 923 371.668, 923 371.118 C 923 368.865, 921.215 369.342, 917.215 372.664 M 905 379.917 C 905 380.421, 905.563 381.023, 906.250 381.254 C 907.221 381.581, 907.189 382.052, 906.107 383.362 C 904.100 385.793, 905.336 386.392, 907.477 384.025 C 908.950 382.398, 909.047 381.762, 908.016 380.519 C 906.613 378.829, 905 378.507, 905 379.917 M 861.406 389.501 C 863.004 390.876, 864.628 392, 865.016 392 C 865.403 392, 867.424 393.607, 869.507 395.571 C 872.386 398.286, 873.495 398.826, 874.132 397.821 C 874.863 396.668, 875.371 397.287, 875.172 399.090 C 875.136 399.415, 877.333 401.873, 880.053 404.553 C 885.590 410.006, 886.943 409.173, 881.557 403.626 C 879.663 401.676, 877.603 399.127, 876.980 397.963 C 876.357 396.798, 875.252 396.073, 874.525 396.352 C 873.798 396.631, 871.726 395.541, 869.921 393.930 C 868.116 392.318, 866.252 391, 865.778 391 C 865.304 391, 863.950 390.100, 862.770 389 C 861.589 387.900, 860.145 387.001, 859.561 387.001 C 858.978 387.002, 859.807 388.127, 861.406 389.501 M 894.208 402.039 C 893.508 403.160, 892.593 403.866, 892.175 403.608 C 891.757 403.350, 891.350 404.010, 891.269 405.075 C 891.177 406.298, 892.220 407.579, 894.094 408.549 C 895.728 409.394, 896.818 410.485, 896.516 410.973 C 895.521 412.583, 897.746 413.011, 899.035 411.458 C 900.074 410.206, 899.962 409.683, 898.398 408.497 C 897.354 407.705, 895.938 407.255, 895.250 407.497 C 893.720 408.036, 893.681 407.464, 895.070 404.870 C 896.421 402.346, 898.294 403.679, 900.717 408.888 C 901.642 410.874, 903.281 413.290, 904.359 414.256 C 905.438 415.222, 906.026 416.307, 905.666 416.667 C 905.307 417.027, 904.033 416.461, 902.837 415.411 C 901.045 413.837, 900.766 413.789, 901.256 415.137 C 901.711 416.390, 901.383 416.651, 899.859 416.253 C 898.449 415.884, 898.179 415.421, 898.934 414.666 C 900.588 413.012, 900.190 411.598, 898.471 413.024 C 897.204 414.076, 896.536 413.912, 894.576 412.072 C 893.111 410.695, 891.965 410.248, 891.564 410.896 C 891.209 411.471, 892.139 412.967, 893.630 414.221 C 895.122 415.474, 897.211 417.332, 898.271 418.350 C 899.674 419.695, 900.500 419.900, 901.300 419.100 C 903.391 417.009, 904.071 418.008, 902.040 420.188 L 900.001 422.376 897.196 419.688 C 895.653 418.210, 893.934 417, 893.375 417 C 892.817 417, 890.520 415.425, 888.271 413.500 C 883.935 409.789, 883 409.356, 883 411.059 C 883 411.641, 883.450 411.840, 884 411.500 C 884.550 411.160, 885 411.377, 885 411.981 C 885 413.246, 892.470 420.583, 894.584 421.394 C 895.363 421.693, 896 422.456, 896 423.091 C 896 423.916, 895.567 423.886, 894.482 422.985 C 892.801 421.590, 884.782 419.838, 885.516 421.026 C 885.770 421.437, 885.308 422.329, 884.489 423.009 C 883.455 423.867, 883 423.902, 883 423.122 C 883 422.505, 882.502 422, 881.893 422 C 881.284 422, 881.047 422.681, 881.367 423.514 C 881.707 424.399, 880.725 426.371, 879.003 428.264 C 877.384 430.044, 876.045 430.964, 876.029 430.309 C 876.013 429.654, 876.450 428.840, 877 428.500 C 877.550 428.160, 878 427.459, 878 426.941 C 878 426.423, 877.550 426, 877 426 C 876.450 426, 876 426.675, 876 427.500 C 876 428.325, 875.555 429, 875.012 429 C 873.764 429, 874.160 433.250, 875.500 434.235 C 876.147 434.710, 876.116 434.975, 875.411 434.985 C 874.812 434.993, 872.815 433.345, 870.974 431.321 C 869.133 429.298, 868.371 427.928, 869.281 428.278 C 870.191 428.627, 871.188 428.505, 871.496 428.007 C 871.804 427.508, 874.734 425.064, 878.008 422.574 C 882.116 419.450, 884.508 418.255, 885.730 418.718 C 887.358 419.334, 887.371 419.258, 885.889 417.762 C 884.040 415.895, 881.535 415.997, 879.740 418.012 C 878.688 419.192, 878.766 419.202, 880.250 418.079 C 881.212 417.351, 882 417.170, 882 417.678 C 882 419.274, 879.814 420.866, 878.378 420.315 C 877.547 419.996, 877 420.447, 877 421.452 C 877 422.368, 876.610 422.877, 876.134 422.583 C 875.657 422.288, 874.420 422.988, 873.384 424.138 C 872.348 425.288, 870.560 426.589, 869.411 427.029 C 867.400 427.798, 866.757 431.090, 868.313 432.646 C 870.609 434.943, 865.360 435.333, 861.312 433.167 C 858.142 431.471, 857.449 431.734, 859.402 433.892 C 860.469 435.071, 863.164 436.040, 866.550 436.463 C 870.172 436.916, 872.424 437.768, 873.299 439.016 C 874.021 440.047, 875.828 441.111, 877.314 441.381 C 878.801 441.650, 880.913 442.155, 882.009 442.503 C 883.104 442.850, 884 442.743, 884 442.265 C 884 441.786, 885.870 439.506, 888.156 437.197 C 892.584 432.725, 896.009 431.912, 901.552 434.020 C 903.027 434.580, 907.380 435.269, 911.225 435.549 C 917.860 436.032, 918.335 435.922, 920.514 433.386 C 922.068 431.576, 923.367 430.927, 924.534 431.375 C 927.313 432.441, 932.984 429.910, 933.105 427.549 C 933.647 416.938, 933.138 412.978, 930.862 410.099 C 929.563 408.455, 927.686 407.086, 926.691 407.055 C 925.696 407.025, 925.119 407.384, 925.410 407.854 C 926.097 408.966, 921.598 411, 918.453 411 C 916.939 411, 916 411.574, 916 412.500 C 916 414.281, 913.874 414.474, 912.242 412.842 C 911.366 411.966, 910.745 411.967, 909.683 412.848 C 908.553 413.786, 907.727 413.186, 905.427 409.756 C 901.898 404.493, 897.831 400.065, 896.491 400.028 C 895.935 400.012, 894.908 400.917, 894.208 402.039 M 868.272 407.985 L 873.309 412.969 870.654 415.057 C 869.194 416.206, 868 417.562, 868 418.073 C 868 419.750, 872.049 419.039, 872.683 417.250 C 873.025 416.288, 873.930 414.768, 874.695 413.874 C 875.898 412.467, 875.850 412.156, 874.337 411.576 C 872.812 410.991, 872.968 410.600, 875.544 408.542 C 877.170 407.242, 878.208 405.884, 877.851 405.524 C 877.494 405.164, 876.115 406.042, 874.785 407.476 L 872.368 410.083 868.613 406.541 C 862.854 401.110, 862.564 402.337, 868.272 407.985 M 964.314 416.750 C 963.972 417.712, 963.539 418.790, 963.352 419.145 C 963.165 419.500, 963.638 420.031, 964.403 420.324 C 965.349 420.687, 965.931 419.922, 966.224 417.929 C 966.690 414.752, 965.325 413.909, 964.314 416.750 M 965 422.522 C 965 423.374, 975.889 434.003, 976.728 433.970 C 977.153 433.953, 976.703 433.475, 975.729 432.908 C 974.755 432.341, 974.194 431.496, 974.482 431.030 C 974.770 430.564, 973.542 429.033, 971.753 427.628 C 969.964 426.223, 967.712 424.382, 966.750 423.537 C 965.788 422.691, 965 422.235, 965 422.522 M 901 474.929 C 901 475.439, 900.271 476.586, 899.381 477.476 C 898.490 478.367, 898.038 479.371, 898.375 479.708 C 899.225 480.559, 903.084 475.945, 902.420 474.871 C 901.715 473.731, 901 473.760, 901 474.929 M 910.753 476.353 C 909.415 477.593, 907.841 478.447, 907.255 478.252 C 906.668 478.056, 904.683 479.203, 902.844 480.801 C 901.005 482.399, 898.923 483.505, 898.218 483.259 C 897.513 483.013, 895.488 483.914, 893.718 485.262 C 891.948 486.610, 889.487 488.032, 888.250 488.424 C 885.498 489.294, 885.271 490.931, 887.931 490.730 C 888.993 490.650, 889.611 490.180, 889.305 489.685 C 889 489.191, 889.818 489.055, 891.125 489.384 C 892.431 489.712, 892.919 489.717, 892.208 489.394 C 890.389 488.565, 892.669 485.936, 894.573 486.666 C 895.469 487.010, 896 486.572, 896 485.490 C 896 484.270, 896.573 483.917, 897.963 484.280 C 899.043 484.563, 900.465 484.145, 901.123 483.351 C 901.782 482.558, 902.900 482.132, 903.609 482.404 C 904.417 482.714, 904.691 482.358, 904.342 481.449 C 904.033 480.642, 904.388 479.949, 905.143 479.885 C 905.889 479.821, 907.077 479.709, 907.783 479.635 C 908.489 479.561, 909.502 478.825, 910.033 478 C 910.893 476.667, 911.122 476.667, 912.094 478 C 913.021 479.270, 913.102 479.232, 912.626 477.750 C 912.273 476.655, 912.581 476, 913.448 476 C 914.210 476, 915.013 476.540, 915.234 477.201 C 915.483 477.948, 915.867 478.024, 916.252 477.401 C 916.592 476.851, 916.041 475.882, 915.028 475.250 C 913.521 474.309, 912.742 474.510, 910.753 476.353 M 883 491.167 C 883 491.808, 882.716 492.049, 882.369 491.702 C 882.021 491.355, 880.784 491.600, 879.619 492.248 C 878.453 492.895, 877.149 493.325, 876.720 493.202 C 876.291 493.080, 874.716 493.607, 873.220 494.374 C 871.637 495.186, 868.758 495.591, 866.335 495.343 C 864.044 495.109, 861.880 495.386, 861.526 495.958 C 861.172 496.531, 859.757 497, 858.382 497 C 857.007 497, 856.148 497.430, 856.473 497.956 C 856.798 498.482, 857.725 498.659, 858.532 498.349 C 859.339 498.040, 860 498.339, 860 499.015 C 860 499.985, 860.315 499.984, 861.489 499.009 C 862.308 498.329, 862.781 497.454, 862.540 497.065 C 862.299 496.675, 864.217 496.318, 866.801 496.271 C 873.270 496.154, 875 495.825, 875 494.711 C 875 494.185, 875.670 494.311, 876.488 494.990 C 877.690 495.988, 878.091 495.927, 878.571 494.676 C 878.898 493.824, 879.719 493.339, 880.396 493.598 C 881.073 493.858, 882.455 493.155, 883.468 492.035 C 884.502 490.893, 884.803 490, 884.155 490 C 883.520 490, 883 490.525, 883 491.167 M 966.300 540.800 C 962.371 545.030, 959.381 548.715, 959.656 548.989 C 959.930 549.264, 961.984 547.466, 964.221 544.994 C 966.457 542.522, 969.627 539.018, 971.266 537.206 C 972.905 535.394, 974.065 533.732, 973.844 533.511 C 973.624 533.290, 970.229 536.570, 966.300 540.800 M 918.675 544.658 C 918.313 545.020, 918.547 545.954, 919.194 546.734 C 920.109 547.837, 920.058 548.346, 918.965 549.022 C 918.191 549.500, 917.907 550.240, 918.333 550.667 C 918.760 551.093, 919.484 550.835, 919.943 550.093 C 920.441 549.287, 921.325 549.062, 922.138 549.533 C 922.887 549.967, 922.483 549.204, 921.241 547.837 C 919.998 546.470, 919.286 545.048, 919.658 544.676 C 920.029 544.304, 920.108 544, 919.833 544 C 919.558 544, 919.037 544.296, 918.675 544.658 M 864 550.259 C 864 552.574, 866.466 554.729, 871.139 556.500 C 873.777 557.500, 882 566.980, 882 569.022 C 882 571.391, 877.379 577.945, 875.500 578.241 C 873.810 578.508, 874.005 578.828, 876.750 580.304 C 878.538 581.265, 880 581.797, 880 581.485 C 880 581.174, 881.216 582.046, 882.702 583.424 C 884.188 584.802, 885.070 586.263, 884.663 586.670 C 884.256 587.078, 879.665 587.597, 874.461 587.825 C 869.258 588.052, 865 588.630, 865 589.109 C 865 589.967, 871.749 589.711, 882.646 588.438 C 886.161 588.027, 889.022 588.209, 890.367 588.929 C 894.676 591.235, 924.909 581.659, 932.352 575.630 C 934.040 574.263, 934.069 573.937, 932.678 571.950 C 930.932 569.458, 931.416 567.383, 934.076 565.960 C 936.627 564.594, 938.712 568.165, 936.456 570.036 C 935.194 571.084, 935.065 570.993, 935.651 569.468 C 936.203 568.028, 935.985 567.792, 934.592 568.326 C 933.626 568.697, 932.662 569, 932.450 569 C 932.237 569, 932.322 569.675, 932.638 570.500 C 933.372 572.412, 934.473 572.392, 937.494 570.412 L 939.918 568.824 937.520 566.238 C 935.747 564.326, 934.782 563.925, 933.811 564.698 C 933.090 565.273, 931.712 565.616, 930.750 565.460 C 929.788 565.304, 928.993 565.700, 928.985 566.338 C 928.975 567.061, 928.639 566.979, 928.096 566.122 C 927.616 565.364, 926.728 565.050, 926.123 565.424 C 925.432 565.851, 925.244 565.529, 925.616 564.558 C 925.945 563.702, 926.721 563.331, 927.355 563.728 C 929.232 564.901, 931.139 564.918, 930.752 563.757 C 930.253 562.258, 927.017 561.920, 924.755 563.131 C 922.201 564.498, 919.432 562.389, 921.116 560.360 C 922.076 559.203, 921.880 559.185, 919.879 560.248 C 915.060 562.806, 914.821 563.079, 916.074 564.589 C 916.916 565.603, 916.929 566, 916.122 566 C 915.505 566, 915 565.502, 915 564.893 C 915 564.284, 914.380 564.024, 913.622 564.315 C 912.864 564.606, 911.739 564.339, 911.122 563.722 C 910.066 562.666, 909.507 563.779, 909.870 566.214 C 909.928 566.607, 909.269 566.657, 908.404 566.325 C 907.270 565.890, 907.164 565.517, 908.023 564.986 C 908.815 564.496, 908.866 564.035, 908.176 563.609 C 907.605 563.256, 906.856 563.425, 906.510 563.984 C 906.165 564.543, 905.346 564.986, 904.691 564.968 C 904.033 564.951, 904.284 564.341, 905.250 563.608 C 907.404 561.973, 907.443 561.384, 905.448 560.618 C 904.522 560.263, 904.154 560.439, 904.534 561.055 C 904.885 561.623, 904.595 562.784, 903.889 563.634 C 902.732 565.027, 902.490 565.023, 901.442 563.590 C 900.420 562.192, 899.826 562.428, 896.519 565.546 C 894.451 567.497, 892.958 569.292, 893.202 569.535 C 893.445 569.778, 895.075 568.578, 896.824 566.868 C 899.270 564.476, 900.313 564.015, 901.344 564.871 C 902.081 565.482, 902.980 565.687, 903.342 565.325 C 903.704 564.963, 904 565.192, 904 565.833 C 904 567.333, 902.726 567.326, 901.217 565.817 C 899.459 564.059, 898.490 565.675, 900.107 567.668 C 900.873 568.612, 900.971 569.067, 900.325 568.679 C 899.009 567.890, 894 569.856, 894 571.161 C 894 571.622, 892.987 571.968, 891.750 571.930 C 889.603 571.863, 889.592 571.820, 891.500 571 C 893.748 570.034, 893.736 570.026, 889.250 569.441 C 885.961 569.012, 885.501 569.536, 886.617 572.444 C 887.051 573.575, 887.593 573.753, 888.449 573.042 C 889.279 572.354, 890.211 572.434, 891.388 573.294 C 892.940 574.429, 892.843 574.577, 890.416 574.778 C 888.933 574.900, 887.122 575.788, 886.392 576.750 C 885.509 577.913, 885.053 578.061, 885.032 577.191 C 885.014 576.471, 884.641 576.104, 884.202 576.375 C 883.763 576.646, 882.863 576.533, 882.201 576.124 C 881.313 575.576, 881.473 574.869, 882.810 573.434 C 884.204 571.939, 884.439 570.775, 883.828 568.415 C 882.900 564.834, 875.834 557.373, 871.500 555.400 C 866.770 553.245, 864.901 551.420, 865.590 549.627 C 865.935 548.728, 865.719 548, 865.107 548 C 864.498 548, 864 549.017, 864 550.259 M 924.429 549.851 C 924.429 551.201, 925.077 551.496, 927.325 551.166 C 929.098 550.905, 930.560 551.276, 931.095 552.120 C 931.756 553.164, 931.973 553.188, 931.985 552.219 C 931.993 551.514, 931.328 550.679, 930.506 550.364 C 929.684 550.048, 929.320 549.275, 929.698 548.645 C 930.075 548.015, 929.623 548.118, 928.692 548.872 C 927.473 549.861, 926.640 549.946, 925.714 549.178 C 924.750 548.378, 924.429 548.546, 924.429 549.851 M 887.494 553.006 C 886.496 554.110, 885.976 555.310, 886.339 555.673 C 886.703 556.036, 887 555.778, 887 555.099 C 887 554.338, 887.735 554.098, 888.916 554.473 C 889.970 554.808, 891.109 554.633, 891.448 554.084 C 891.787 553.536, 892.837 553.335, 893.782 553.638 C 895.205 554.094, 895.248 554.011, 894.034 553.152 C 893.014 552.431, 892.168 552.445, 891.259 553.200 C 890.540 553.797, 889.638 553.971, 889.255 553.588 C 888.872 553.205, 889.220 552.473, 890.029 551.961 C 890.838 551.449, 891.007 551.024, 890.405 551.015 C 889.803 551.007, 888.493 551.903, 887.494 553.006 M 949.035 553.542 C 951.109 556.041, 948.718 557.450, 946.521 555.024 C 945.514 553.911, 944.225 553, 943.656 553 C 943.088 553, 943.618 553.927, 944.834 555.060 C 946.099 556.239, 946.731 557.628, 946.311 558.310 C 945.907 558.964, 946.810 558.694, 948.317 557.708 C 949.824 556.723, 951.606 556.233, 952.278 556.620 C 952.950 557.006, 952.409 556.125, 951.076 554.661 C 948.498 551.832, 946.878 550.944, 949.035 553.542 M 887.577 577.875 C 887.235 578.430, 885.164 578.668, 882.977 578.404 C 880.790 578.140, 879 578.343, 879 578.855 C 879 580.485, 882.193 581.082, 883.877 579.767 C 885.291 578.663, 885.337 578.708, 884.238 580.117 C 882.530 582.306, 885.349 585.057, 887.292 583.098 C 888.238 582.145, 888.121 582.026, 886.750 582.548 C 884.263 583.494, 884.571 581.414, 887.190 579.580 C 888.394 578.736, 889.114 577.781, 888.790 577.456 C 888.466 577.132, 887.920 577.321, 887.577 577.875 M 218 694.500 L 218 700 531.500 700 L 845 700 845 694.500 L 845 689 531.500 689 L 218 689 218 694.500 M 239.500 709.391 C 230.720 712.152, 222.218 719.673, 217.655 728.714 C 213.863 736.226, 212.674 743.469, 213.233 755.634 C 213.955 771.329, 217.381 780.876, 233.995 813.500 C 249.017 842.998, 252.821 852.278, 253.686 861.539 C 254.794 873.401, 248.090 882.004, 237.120 882.798 C 230.480 883.278, 226.610 881.908, 219.741 876.646 C 217.124 874.641, 214.749 873, 214.462 873 C 214.176 873, 214.068 878.962, 214.221 886.250 L 214.500 899.500 220.500 902.453 C 225.732 905.028, 227.844 905.456, 237 905.794 C 245.894 906.124, 248.364 905.858, 253.153 904.056 C 260.683 901.223, 266.957 896.278, 271.273 889.777 C 277.097 881.002, 278.510 875.322, 278.432 861 C 278.334 842.973, 276.332 837.071, 258.001 800.752 C 240.997 767.062, 237.999 759.352, 238.002 749.324 C 238.004 736.953, 242.529 731.818, 253.997 731.170 C 260.102 730.825, 261.709 731.143, 267.465 733.837 L 274 736.895 274 724.588 L 274 712.281 267.479 710.141 C 259.973 707.677, 246.132 707.306, 239.500 709.391 M 410.500 709.391 C 401.720 712.152, 393.218 719.673, 388.655 728.714 C 384.863 736.226, 383.674 743.469, 384.233 755.634 C 384.955 771.329, 388.381 780.876, 404.995 813.500 C 420.017 842.998, 423.821 852.278, 424.686 861.539 C 425.794 873.401, 419.090 882.004, 408.120 882.798 C 401.480 883.278, 397.610 881.908, 390.741 876.646 C 388.124 874.641, 385.749 873, 385.462 873 C 385.176 873, 385.068 878.962, 385.221 886.250 L 385.500 899.500 391.500 902.453 C 396.732 905.028, 398.844 905.456, 408 905.794 C 420.098 906.242, 426.465 904.479, 434.267 898.522 C 438.731 895.114, 445.671 885.813, 446.339 882.342 C 446.535 881.329, 447.308 879.150, 448.058 877.500 C 448.989 875.451, 449.416 870.379, 449.403 861.500 C 449.377 842.979, 447.516 837.434, 429.001 800.752 C 411.997 767.062, 408.999 759.352, 409.002 749.324 C 409.004 736.953, 413.529 731.818, 424.997 731.170 C 431.102 730.825, 432.709 731.143, 438.465 733.837 L 445 736.895 445 724.588 L 445 712.281 438.479 710.141 C 430.973 707.677, 417.132 707.306, 410.500 709.391 M 819.500 709.391 C 810.720 712.152, 802.218 719.673, 797.655 728.714 C 793.863 736.226, 792.674 743.469, 793.233 755.634 C 793.955 771.329, 797.381 780.876, 813.995 813.500 C 829.017 842.998, 832.821 852.278, 833.686 861.539 C 834.794 873.401, 828.090 882.004, 817.120 882.798 C 810.480 883.278, 806.610 881.908, 799.741 876.646 C 797.124 874.641, 794.749 873, 794.462 873 C 794.176 873, 794.068 878.962, 794.221 886.250 L 794.500 899.500 800.500 902.453 C 805.732 905.028, 807.844 905.456, 817 905.794 C 825.894 906.124, 828.364 905.858, 833.153 904.056 C 840.683 901.223, 846.957 896.278, 851.273 889.777 C 857.097 881.002, 858.510 875.322, 858.432 861 C 858.334 842.973, 856.332 837.071, 838.001 800.752 C 820.997 767.062, 817.999 759.352, 818.002 749.324 C 818.004 736.953, 822.529 731.818, 833.997 731.170 C 840.102 730.825, 841.709 731.143, 847.465 733.837 L 854 736.895 854 724.588 L 854 712.281 847.479 710.141 C 839.973 707.677, 826.132 707.306, 819.500 709.391 M 288.030 713.750 C 288.539 715.263, 295.491 738.986, 303.478 766.469 L 318 816.438 318 860.219 L 318 904 331 904 L 344 904 344 859.476 L 344 814.952 358.622 765.726 C 366.663 738.652, 373.611 715.250, 374.060 713.722 L 374.876 710.944 361.263 711.222 L 347.650 711.500 339.041 748.263 L 330.432 785.026 323.044 751.263 C 318.981 732.693, 315.262 716.038, 314.781 714.250 L 313.906 711 300.505 711 L 287.104 711 288.030 713.750 M 459 723 L 459 735 474 735 L 489 735 489 819.500 L 489 904 502 904 L 515 904 515 819.500 L 515 735 530 735 L 545 735 545 723 L 545 711 502 711 L 459 711 459 723 M 564 807.500 L 564 904 600 904 L 636 904 636 892 L 636 880 613 880 L 590 880 590 847.500 L 590 815 610 815 L 630 815 630 803 L 630 791 610 791 L 590 791 590 763 L 590 735 612 735 L 634 735 634 723 L 634 711 599 711 L 564 711 564 807.500 M 669 807.467 L 669 904 681.526 904 L 694.051 904 693.500 840.250 C 693.197 805.188, 692.751 773.800, 692.508 770.500 C 691.963 763.081, 691.169 761.351, 705.490 798.802 L 716.312 827.103 719.278 826.802 C 722.194 826.505, 722.433 826.009, 733.607 797 C 739.857 780.775, 745.171 767.050, 745.418 766.500 C 745.915 765.391, 745.273 843.101, 744.478 880.250 L 743.970 904 756.985 904 L 770 904 770 807.468 L 770 710.937 758.424 711.218 L 746.848 711.500 733.174 745.305 C 724.291 767.267, 719.210 778.653, 718.672 777.805 C 718.217 777.087, 711.905 761.875, 704.647 744 L 691.450 711.500 680.225 711.217 L 669 710.934 669 807.467 M 218 916.500 L 218 922 531.500 922 L 845 922 845 916.500 L 845 911 531.500 911 L 218 911 218 916.500" stroke="none" fill="#f4f7ec" fill-rule="evenodd"/></svg>